<?xml version="1.0" encoding="UTF-8"?>
<svg xmlns="http://www.w3.org/2000/svg" xmlns:xlink="http://www.w3.org/1999/xlink" width="375pt" height="374.999991pt" viewBox="0 0 375 374.999991" version="1.2">
<defs>
<filter id="alpha" filterUnits="objectBoundingBox" x="0%" y="0%" width="100%" height="100%">
  <feColorMatrix type="matrix" in="SourceGraphic" values="0 0 0 0 1 0 0 0 0 1 0 0 0 0 1 0 0 0 1 0"/>
</filter>
<mask id="mask0">
  <g filter="url(#alpha)">
<rect x="0" y="0" width="375" height="374.999991" style="fill:rgb(0%,0%,0%);fill-opacity:0.5569;stroke:none;"/>
  </g>
</mask>
<clipPath id="clip1">
  <rect x="0" y="0" width="300" height="243"/>
</clipPath>
<g id="surface5" clip-path="url(#clip1)">
<path style=" stroke:none;fill-rule:nonzero;fill:rgb(91.758728%,34.899902%,43.139648%);fill-opacity:1;" d="M 244.550781 196.28125 C 244.574219 198.625 243.972656 201.6875 243.34375 204.210938 C 238.960938 221.96875 219.492188 241.894531 192.089844 240.082031 C 167.257812 238.441406 147.03125 226.488281 147.03125 209.726562 C 147.03125 192.960938 167.207031 179.371094 192.089844 179.371094 C 216.976562 179.371094 244.394531 179.519531 244.550781 196.28125 Z M 244.550781 196.28125 "/>
<path style=" stroke:none;fill-rule:nonzero;fill:rgb(86.669922%,18.03894%,26.669312%);fill-opacity:1;" d="M 192.089844 182.183594 C 178.726562 182.183594 148.21875 185.894531 141.21875 185.894531 C 128.851562 185.894531 118.820312 193.675781 118.820312 203.277344 C 118.820312 207.894531 121.179688 212.066406 124.960938 215.179688 C 124.960938 215.179688 133.265625 223.53125 148.226562 219.527344 C 154.773438 217.769531 165.425781 204.742188 184.171875 202.671875 C 193.511719 201.636719 211.007812 208.878906 241.75 209.054688 C 243.074219 206.207031 243.34375 204.226562 243.34375 204.226562 C 243.34375 187.449219 216.976562 182.183594 192.089844 182.183594 Z M 192.089844 182.183594 "/>
<path style=" stroke:none;fill-rule:nonzero;fill:rgb(95.689392%,67.059326%,72.938538%);fill-opacity:1;" d="M 243.34375 204.210938 C 243.34375 204.210938 261.375 200.542969 272.585938 185.761719 C 285.65625 168.515625 283.941406 150.066406 283.941406 150.066406 C 297.183594 125.230469 279.8125 101.945312 279.8125 101.945312 C 278.085938 75.730469 261.921875 64.867188 261.921875 64.867188 C 251.425781 39.859375 228.210938 33.136719 228.210938 33.136719 C 209.980469 11.757812 177.644531 12.441406 177.644531 12.441406 C 177.644531 12.441406 147.34375 1.308594 105.75 13.824219 C 98.871094 15.894531 75.820312 20.722656 58.960938 31.070312 C 5.828125 63.683594 1.804688 114.542969 2.550781 122.8125 C 6.667969 169.03125 39.007812 177.308594 59.648438 182.132812 C 64.460938 195.238281 82.179688 219.386719 113.996094 210.421875 C 153.214844 203.523438 169.726562 191.792969 179.359375 191.792969 C 188.996094 191.792969 215.828125 202.140625 243.34375 204.210938 Z M 243.34375 204.210938 "/>
<path style=" stroke:none;fill-rule:nonzero;fill:rgb(91.758728%,34.899902%,43.139648%);fill-opacity:1;" d="M 144.164062 129.898438 C 163.386719 119.511719 173.804688 120.480469 183 121.316406 C 185.925781 121.582031 188.691406 121.789062 191.488281 121.769531 C 207.867188 121.398438 221.136719 114.476562 227.007812 107.78125 C 228.507812 106.058594 228.335938 103.453125 226.625 101.9375 C 224.925781 100.429688 222.324219 100.585938 220.796875 102.308594 C 216.273438 107.476562 205.121094 113.179688 191.296875 113.492188 C 188.820312 113.566406 186.335938 113.320312 183.761719 113.078125 C 173.894531 112.160156 161.644531 111.035156 140.242188 122.617188 C 134.753906 125.585938 127.222656 126.6875 119.066406 127.515625 C 100.929688 101.265625 111.84375 78.402344 114.964844 72.957031 C 115.269531 72.972656 115.566406 73.070312 115.878906 73.070312 C 119.183594 73.070312 122.5 72.261719 125.507812 70.554688 C 127.488281 69.429688 128.191406 66.902344 127.066406 64.917969 C 125.945312 62.929688 123.425781 62.226562 121.445312 63.351562 C 116.160156 66.347656 109.207031 64.621094 105.921875 59.488281 C 104.691406 57.558594 102.140625 56.996094 100.226562 58.238281 C 98.3125 59.46875 97.75 62.027344 98.980469 63.949219 C 100.9375 67.019531 103.695312 69.328125 106.804688 70.878906 C 102.503906 79.636719 94.339844 102.664062 109.878906 128.417969 C 98.945312 129.496094 88 131.042969 79.429688 136.582031 C 73.898438 140.15625 68.242188 145.386719 63.925781 151.40625 C 58.730469 150.511719 39.71875 145.820312 36.398438 124.660156 C 38.464844 123.054688 40.128906 120.933594 41.164062 118.320312 C 42.003906 116.191406 40.964844 113.789062 38.84375 112.945312 C 36.722656 112.101562 34.328125 113.144531 33.484375 115.273438 C 32.75 117.136719 31.421875 118.492188 29.734375 119.089844 C 28.070312 119.683594 26.179688 119.484375 24.425781 118.507812 C 22.421875 117.390625 19.917969 118.128906 18.8125 120.117188 C 17.707031 122.109375 18.425781 124.636719 20.414062 125.746094 C 22.761719 127.050781 25.269531 127.714844 27.761719 127.714844 C 28.070312 127.714844 28.359375 127.574219 28.664062 127.558594 C 32.59375 147.53125 48.335938 156.308594 59.472656 158.964844 C 58.019531 162.175781 57.039062 165.488281 56.742188 168.832031 C 56.542969 171.101562 58.21875 173.121094 60.488281 173.316406 L 60.863281 173.335938 C 62.976562 173.335938 64.78125 171.71875 64.972656 169.558594 C 65.863281 159.519531 75.417969 149.03125 83.902344 143.527344 C 91.863281 138.386719 103.511719 137.300781 114.789062 136.25 C 125.730469 135.246094 136.066406 134.289062 144.164062 129.898438 Z M 250.386719 117.449219 C 249.304688 119.453125 250.046875 121.96875 252.039062 123.054688 C 252.664062 123.402344 253.351562 123.566406 254.019531 123.566406 C 255.472656 123.566406 256.882812 122.796875 257.636719 121.421875 C 257.792969 121.140625 272.84375 92.871094 244.664062 73.875 C 242.785156 72.617188 240.214844 73.105469 238.9375 75 C 237.664062 76.894531 238.167969 79.46875 240.058594 80.746094 C 261.886719 95.464844 250.867188 116.554688 250.386719 117.449219 Z M 79.265625 50.613281 C 80.550781 50.613281 81.816406 50.015625 82.617188 48.890625 C 94.585938 32.195312 111.164062 37.90625 111.867188 38.171875 C 114.003906 38.949219 116.359375 37.855469 117.152344 35.722656 C 117.945312 33.578125 116.855469 31.199219 114.714844 30.40625 C 106.789062 27.460938 88.484375 26.53125 75.914062 44.066406 C 74.582031 45.910156 75.003906 48.503906 76.851562 49.835938 C 77.589844 50.363281 78.429688 50.613281 79.265625 50.613281 Z M 187.1875 34.984375 C 205.558594 33.484375 213.910156 46.839844 214.292969 47.46875 C 215.066406 48.773438 216.4375 49.503906 217.851562 49.503906 C 218.558594 49.503906 219.285156 49.320312 219.9375 48.933594 C 221.902344 47.773438 222.5625 45.242188 221.417969 43.269531 C 220.972656 42.515625 210.355469 24.910156 186.542969 26.730469 C 184.273438 26.90625 182.582031 28.898438 182.753906 31.183594 C 182.933594 33.460938 184.992188 35.191406 187.1875 34.984375 Z M 262.730469 155.933594 C 260.699219 155.820312 258.460938 157.433594 258.28125 159.71875 C 258.261719 159.867188 256.949219 173.949219 242.511719 178.707031 C 240.347656 179.417969 239.167969 181.753906 239.886719 183.929688 C 240.445312 185.667969 242.074219 186.777344 243.808594 186.777344 C 244.238281 186.777344 244.664062 186.710938 245.09375 186.570312 C 264.679688 180.132812 266.445312 161.207031 266.511719 160.40625 C 266.683594 158.121094 265 156.117188 262.730469 155.933594 Z M 262.730469 155.933594 "/>
<path style=" stroke:none;fill-rule:nonzero;fill:rgb(91.758728%,34.899902%,43.139648%);fill-opacity:1;" d="M 58.382812 115.710938 C 57.789062 117.921875 59.09375 120.191406 61.300781 120.785156 C 61.652344 120.886719 62.015625 120.925781 62.371094 120.925781 C 64.195312 120.925781 65.855469 119.710938 66.351562 117.863281 C 67.921875 111.976562 74.003906 108.203125 79.992188 109.46875 C 82.226562 109.925781 84.40625 108.507812 84.878906 106.265625 C 85.347656 104.03125 83.921875 101.835938 81.683594 101.367188 C 78.167969 100.621094 74.632812 100.96875 71.378906 102.078125 C 61.753906 85.570312 63.628906 69.296875 63.652344 69.121094 C 63.949219 66.863281 62.363281 64.785156 60.109375 64.46875 C 57.863281 64.199219 55.785156 65.746094 55.46875 68.003906 C 55.363281 68.808594 53.160156 87.175781 64.246094 106.199219 C 61.488281 108.691406 59.390625 111.945312 58.382812 115.710938 Z M 150.679688 95.265625 C 154.039062 92.144531 159.429688 92.203125 162.691406 95.390625 C 163.5 96.167969 164.53125 96.554688 165.574219 96.554688 C 166.65625 96.554688 167.726562 96.132812 168.527344 95.296875 C 170.113281 93.660156 170.082031 91.035156 168.445312 89.445312 C 166.546875 87.597656 164.277344 86.367188 161.867188 85.597656 C 164.308594 77.183594 163.34375 73.453125 161.074219 66.457031 C 160.675781 65.242188 160.238281 63.882812 159.777344 62.335938 L 159.53125 61.507812 C 156.523438 51.507812 154.535156 44.910156 160.246094 35.597656 C 161.445312 33.652344 160.832031 31.101562 158.894531 29.902344 C 156.988281 28.710938 154.417969 29.296875 153.214844 31.257812 C 145.550781 43.742188 148.367188 53.089844 151.628906 63.90625 L 151.875 64.734375 C 152.363281 66.339844 152.808594 67.75 153.222656 69.015625 C 155.261719 75.316406 155.878906 77.425781 153.386719 85.042969 C 150.339844 85.613281 147.425781 86.996094 145.046875 89.214844 C 143.378906 90.769531 143.289062 93.394531 144.84375 95.066406 C 146.402344 96.738281 149.019531 96.820312 150.679688 95.265625 Z M 203.230469 70.554688 C 205.632812 70.554688 208.058594 70.050781 210.320312 68.972656 C 212.382812 67.996094 213.269531 65.53125 212.292969 63.460938 C 211.328125 61.390625 208.835938 60.53125 206.804688 61.480469 C 202.660156 63.4375 197.546875 61.738281 195.378906 57.699219 C 194.296875 55.679688 191.777344 54.941406 189.789062 56.003906 C 187.78125 57.078125 187.023438 59.59375 188.105469 61.605469 C 189.589844 64.386719 191.800781 66.582031 194.378906 68.105469 C 189.945312 78.90625 192.460938 90.378906 194.519531 96.464844 C 195.097656 98.195312 196.707031 99.28125 198.433594 99.28125 C 198.871094 99.28125 199.308594 99.214844 199.753906 99.0625 C 201.914062 98.335938 203.070312 95.984375 202.335938 93.824219 C 200.949219 89.703125 198.257812 79.289062 202.320312 70.429688 C 202.632812 70.445312 202.921875 70.554688 203.230469 70.554688 Z M 242.832031 148.609375 C 242.675781 146.332031 240.710938 144.535156 238.449219 144.742188 C 230.078125 145.339844 222.945312 138.972656 222.375 130.644531 C 222.210938 128.367188 220.1875 126.671875 217.972656 126.796875 C 215.703125 126.953125 213.984375 128.929688 214.136719 131.207031 C 214.472656 136.09375 216.332031 140.496094 219.15625 144.082031 C 212.515625 151.910156 203.824219 154.136719 198.976562 154.710938 C 194.691406 155.222656 190.945312 154.785156 186.609375 154.269531 C 182.636719 153.816406 178.148438 153.292969 172.589844 153.460938 L 172.550781 153.46875 C 172.382812 151.101562 171.824219 147.648438 170.03125 144.777344 C 168.824219 142.847656 166.273438 142.257812 164.34375 143.46875 C 162.417969 144.675781 161.824219 147.234375 163.039062 149.171875 C 164.144531 150.949219 164.351562 153.789062 164.351562 155.171875 C 160.191406 156.671875 156.589844 158.875 153.335938 161 C 147.523438 164.792969 142.941406 167.789062 136.050781 166.230469 C 129.808594 164.800781 123.558594 164.511719 118.257812 165.253906 C 117.433594 163.175781 116.128906 160.695312 114.113281 158.78125 C 112.453125 157.210938 109.84375 157.277344 108.277344 158.949219 C 106.714844 160.601562 106.78125 163.226562 108.441406 164.800781 C 109.152344 165.472656 109.710938 166.449219 110.167969 167.425781 C 101.058594 171.183594 96.496094 177.464844 96.28125 177.773438 C 94.960938 179.625 95.398438 182.183594 97.230469 183.515625 C 97.957031 184.039062 98.796875 184.296875 99.640625 184.296875 C 100.917969 184.296875 102.183594 183.707031 102.992188 182.597656 C 103.035156 182.53125 107.566406 176.449219 116.507812 173.988281 C 121.128906 172.714844 127.761719 172.820312 134.226562 174.296875 C 136.03125 174.710938 137.707031 174.851562 139.335938 174.875 C 140.101562 176.679688 140.398438 178.824219 140.441406 179.617188 C 140.574219 181.820312 142.390625 183.523438 144.5625 183.523438 L 144.785156 183.515625 C 147.054688 183.394531 148.796875 181.464844 148.6875 179.1875 C 148.664062 178.773438 148.5 176.324219 147.617188 173.507812 C 151.421875 172.125 154.734375 169.964844 157.84375 167.9375 C 162.566406 164.851562 167.035156 161.929688 172.871094 161.738281 C 177.757812 161.5625 181.789062 162.035156 185.675781 162.492188 C 189.589844 162.945312 193.4375 163.242188 197.679688 162.996094 C 198.433594 165.089844 198.375 167.886719 198.257812 168.824219 C 197.984375 171.082031 199.578125 173.152344 201.839844 173.449219 C 202.015625 173.476562 202.1875 173.484375 202.363281 173.484375 C 204.402344 173.484375 206.175781 171.96875 206.449219 169.882812 C 206.515625 169.371094 206.9375 165.644531 205.960938 161.761719 C 211.890625 160.164062 219.238281 156.695312 225.320312 149.585938 C 228.878906 151.769531 233.03125 153.054688 237.449219 153.054688 C 237.960938 153.054688 238.480469 153.039062 238.992188 153.003906 C 241.265625 152.855469 242.980469 150.894531 242.832031 148.609375 Z M 242.832031 148.609375 "/>
</g>
<clipPath id="clip2">
  <path d="M 301 334 L 347 334 L 347 350.714844 L 301 350.714844 Z M 301 334 "/>
</clipPath>
<clipPath id="clip3">
  <path d="M 146 335 L 190 335 L 190 350.714844 L 146 350.714844 Z M 146 335 "/>
</clipPath>
</defs>
<g id="surface1">
<use xlink:href="#surface5" transform="matrix(1,0,0,1,37,66)" mask="url(#mask0)"/>
<g clip-path="url(#clip2)" clip-rule="nonzero">
<path style=" stroke:none;fill-rule:nonzero;fill:rgb(89.7995%,78.819275%,72.158813%);fill-opacity:1;" d="M 304.261719 336.449219 C 304.261719 336.449219 298.585938 350.984375 304.503906 355.289062 C 310.425781 359.59375 318.941406 354.792969 325.453125 356.980469 C 329.019531 358.179688 344.132812 360.5 346.300781 356.363281 C 348.464844 352.222656 344.199219 346.105469 337.84375 344.324219 C 331.492188 342.546875 319.589844 339.460938 317.90625 336.34375 C 316.226562 333.226562 304.261719 336.449219 304.261719 336.449219 "/>
</g>
<path style=" stroke:none;fill-rule:nonzero;fill:rgb(89.7995%,78.819275%,72.158813%);fill-opacity:1;" d="M 178.71875 250.023438 C 178.71875 250.023438 167.199219 239.480469 161.039062 243.433594 C 154.878906 247.390625 156.28125 257.054688 151.882812 262.324219 C 149.476562 265.207031 141.839844 278.4375 144.917969 281.953125 C 148 285.46875 155.257812 283.714844 159.214844 278.4375 C 163.175781 273.167969 170.359375 263.203125 173.878906 262.765625 C 177.398438 262.324219 178.71875 250.023438 178.71875 250.023438 "/>
<path style=" stroke:none;fill-rule:nonzero;fill:rgb(8.628845%,10.5896%,14.898682%);fill-opacity:1;" d="M 226.574219 208.160156 C 226.574219 208.160156 222.578125 241.019531 217.871094 254.859375 C 217.871094 254.859375 185.535156 248.050781 179.597656 246.730469 C 173.65625 245.414062 170.359375 261.230469 171.675781 267.160156 C 171.675781 267.160156 216.859375 285.917969 230.054688 285.261719 C 243.253906 284.601562 268.804688 245.722656 268.804688 245.722656 L 291.550781 284.601562 L 302.730469 337.746094 C 302.730469 337.746094 318.613281 341.574219 321.253906 338.0625 C 326.753906 330.738281 323.703125 286.566406 321.253906 271.550781 C 318.175781 252.660156 304.125 210.871094 302.589844 210.832031 C 301.0625 210.789062 226.574219 208.160156 226.574219 208.160156 "/>
<path style=" stroke:none;fill-rule:nonzero;fill:rgb(96.078491%,56.079102%,42.749023%);fill-opacity:1;" d="M 286.574219 119.953125 C 286.574219 119.953125 290.660156 122.175781 296.902344 127.011719 C 303.144531 131.84375 315.09375 147.660156 315.09375 147.660156 L 342.8125 123.859375 L 347.648438 127.011719 C 347.648438 127.011719 329.25 163.917969 317.113281 167.429688 C 317.113281 167.429688 312.726562 171.382812 286.574219 146.78125 C 260.421875 122.179688 286.574219 119.953125 286.574219 119.953125 "/>
<path style=" stroke:none;fill-rule:nonzero;fill:rgb(89.019775%,49.409485%,38.42926%);fill-opacity:1;" d="M 344.683594 132.65625 C 337.703125 141.003906 320.433594 160.984375 315.097656 160.984375 C 308.351562 160.984375 292.640625 138.242188 291.992188 137.019531 C 291.679688 136.4375 288.867188 141.121094 286.050781 146.277344 C 286.226562 146.445312 286.394531 146.609375 286.574219 146.78125 C 312.730469 171.378906 317.113281 167.429688 317.113281 167.429688 C 326.269531 164.777344 338.984375 143.136719 344.683594 132.65625 "/>
<path style=" stroke:none;fill-rule:nonzero;fill:rgb(89.7995%,78.819275%,72.158813%);fill-opacity:1;" d="M 204.230469 82.964844 C 204.230469 82.964844 208.976562 97.140625 235.398438 101.328125 C 246.53125 103.089844 231.445312 78.140625 231.445312 78.140625 L 204.230469 82.964844 "/>
<path style=" stroke:none;fill-rule:nonzero;fill:rgb(37.249756%,68.629456%,89.7995%);fill-opacity:1;" d="M 254.605469 116.15625 C 254.605469 116.15625 237.183594 111.535156 232.554688 116.15625 C 227.925781 120.773438 227.808594 154.6875 227.808594 154.6875 C 227.808594 154.6875 214.433594 203.082031 218.394531 209.632812 C 222.355469 216.183594 301.054688 219.585938 310.765625 215.34375 C 310.765625 215.34375 310.765625 190.300781 296.902344 156.226562 C 296.902344 156.226562 295.21875 124.761719 288.121094 120.773438 C 281.027344 116.789062 273.914062 115.769531 269.828125 116.15625 C 265.742188 116.539062 254.605469 116.15625 254.605469 116.15625 "/>
<path style=" stroke:none;fill-rule:nonzero;fill:rgb(29.798889%,59.609985%,78.42865%);fill-opacity:1;" d="M 218.394531 209.632812 C 222.355469 216.183594 301.054688 219.585938 310.765625 215.34375 C 310.765625 215.34375 310.765625 213.792969 310.546875 210.933594 C 297.925781 210.925781 242.082031 209.972656 236.078125 193.789062 C 229.304688 175.527344 249.796875 155.734375 245.050781 134.917969 C 243.183594 126.738281 240.019531 119.800781 236.546875 114.394531 C 234.878906 114.691406 233.46875 115.242188 232.554688 116.15625 C 227.925781 120.773438 227.808594 154.6875 227.808594 154.6875 C 227.808594 154.6875 214.433594 203.082031 218.394531 209.632812 "/>
<path style=" stroke:none;fill-rule:nonzero;fill:rgb(89.408875%,48.239136%,37.249756%);fill-opacity:1;" d="M 270.582031 106.128906 L 274.738281 117.304688 C 274.738281 117.304688 278.371094 120.3125 277.875 123.683594 C 275.167969 141.976562 255.75 129.402344 252.804688 118.074219 C 252.804688 118.074219 255.652344 110.753906 256.171875 106.128906 L 270.582031 106.128906 "/>
<path style=" stroke:none;fill-rule:nonzero;fill:rgb(77.648926%,38.038635%,30.979919%);fill-opacity:1;" d="M 276.09375 118.714844 L 270.582031 106.128906 L 256.171875 106.128906 C 255.945312 108.132812 254.175781 113.996094 253.492188 116.195312 C 261.085938 126.875 274.84375 125.097656 276.09375 118.714844 "/>
<path style=" stroke:none;fill-rule:nonzero;fill:rgb(87.838745%,46.669006%,35.688782%);fill-opacity:1;" d="M 299.027344 76.25 C 296.269531 80.53125 296.1875 86.117188 298.84375 88.734375 C 301.496094 91.34375 305.886719 89.996094 308.640625 85.714844 C 311.398438 81.433594 311.480469 75.847656 308.824219 73.234375 C 306.171875 70.621094 301.785156 71.972656 299.027344 76.25 "/>
<path style=" stroke:none;fill-rule:nonzero;fill:rgb(89.408875%,47.44873%,35.688782%);fill-opacity:1;" d="M 303.523438 87.765625 C 299.816406 88.53125 299.605469 84.300781 299.605469 84.300781 C 299.84375 84.476562 302.3125 85.417969 303.226562 83.566406 C 304.140625 81.714844 300.957031 80.316406 300.957031 80.316406 C 301.289062 79.125 302.863281 74.738281 306.207031 75.511719 C 309.554688 76.285156 308.625 81.0625 308.625 81.0625 C 308.625 81.0625 308.210938 86.796875 303.523438 87.765625 "/>
<path style=" stroke:none;fill-rule:nonzero;fill:rgb(66.668701%,31.369019%,23.529053%);fill-opacity:1;" d="M 308.929688 81.121094 C 308.933594 81.109375 309.050781 80.476562 309.054688 79.628906 C 309.050781 78.863281 308.957031 77.917969 308.5625 77.074219 C 308.175781 76.226562 307.449219 75.476562 306.28125 75.210938 C 305.988281 75.140625 305.710938 75.109375 305.441406 75.109375 C 303.875 75.113281 302.75 76.160156 302 77.285156 C 301.242188 78.414062 300.820312 79.660156 300.660156 80.230469 C 300.621094 80.378906 300.695312 80.535156 300.835938 80.597656 L 300.929688 80.640625 C 301.148438 80.746094 301.710938 81.042969 302.203125 81.453125 C 302.703125 81.867188 303.089844 82.386719 303.082031 82.890625 C 303.082031 83.058594 303.042969 83.234375 302.949219 83.429688 C 302.757812 83.8125 302.507812 84.039062 302.222656 84.183594 C 301.9375 84.328125 301.605469 84.382812 301.277344 84.382812 C 300.914062 84.382812 300.550781 84.316406 300.269531 84.230469 C 300.128906 84.191406 300.011719 84.148438 299.925781 84.113281 L 299.820312 84.066406 L 299.792969 84.050781 L 299.789062 84.050781 C 299.695312 83.976562 299.566406 83.96875 299.460938 84.023438 C 299.351562 84.082031 299.289062 84.195312 299.296875 84.316406 C 299.296875 84.335938 299.34375 85.269531 299.746094 86.234375 C 299.953125 86.71875 300.246094 87.210938 300.6875 87.597656 C 301.128906 87.980469 301.726562 88.242188 302.464844 88.242188 C 302.816406 88.242188 303.195312 88.183594 303.613281 88.0625 C 303.777344 88.015625 303.871094 87.84375 303.824219 87.679688 C 303.773438 87.511719 303.605469 87.421875 303.441406 87.464844 C 303.070312 87.574219 302.746094 87.621094 302.464844 87.621094 C 301.867188 87.617188 301.4375 87.425781 301.09375 87.128906 C 300.578125 86.683594 300.265625 85.972656 300.105469 85.367188 C 300.023438 85.0625 299.976562 84.789062 299.949219 84.589844 C 299.933594 84.492188 299.925781 84.414062 299.921875 84.359375 L 299.914062 84.28125 L 299.605469 84.300781 L 299.421875 84.546875 C 299.5 84.601562 299.570312 84.636719 299.6875 84.683594 C 300.015625 84.820312 300.609375 85.003906 301.277344 85.003906 C 301.675781 85.003906 302.101562 84.9375 302.5 84.734375 C 302.898438 84.539062 303.261719 84.199219 303.507812 83.703125 C 303.640625 83.429688 303.703125 83.15625 303.703125 82.890625 C 303.703125 82.425781 303.515625 82.015625 303.261719 81.671875 C 302.496094 80.636719 301.105469 80.042969 301.082031 80.027344 L 300.960938 80.3125 L 301.261719 80.394531 C 301.402344 79.871094 301.8125 78.667969 302.515625 77.628906 C 303.222656 76.578125 304.183594 75.726562 305.441406 75.730469 C 305.664062 75.730469 305.894531 75.753906 306.140625 75.8125 C 307.117188 76.042969 307.660156 76.613281 308 77.332031 C 308.335938 78.050781 308.433594 78.917969 308.433594 79.628906 C 308.433594 80.023438 308.402344 80.367188 308.375 80.617188 C 308.359375 80.742188 308.34375 80.835938 308.335938 80.902344 L 308.320312 81 C 308.289062 81.171875 308.398438 81.332031 308.566406 81.367188 C 308.730469 81.398438 308.894531 81.289062 308.929688 81.121094 "/>
<path style=" stroke:none;fill-rule:nonzero;fill:rgb(66.668701%,31.369019%,23.529053%);fill-opacity:1;" d="M 306.410156 82.324219 C 306.417969 82.296875 307.042969 81.136719 307.046875 79.6875 C 307.046875 78.949219 306.878906 78.128906 306.363281 77.378906 C 305.808594 76.566406 305.054688 76.269531 304.378906 76.273438 C 303.167969 76.285156 302.171875 77.078125 302.148438 77.089844 C 302.015625 77.195312 301.992188 77.390625 302.09375 77.527344 C 302.199219 77.660156 302.394531 77.6875 302.527344 77.582031 L 302.5625 77.554688 C 302.738281 77.425781 303.570312 76.886719 304.378906 76.894531 C 304.894531 76.902344 305.394531 77.074219 305.847656 77.726562 C 306.277344 78.355469 306.421875 79.039062 306.425781 79.6875 C 306.425781 80.320312 306.28125 80.914062 306.140625 81.34375 C 306.070312 81.558594 305.996094 81.734375 305.945312 81.851562 L 305.878906 81.988281 L 305.859375 82.03125 C 305.78125 82.183594 305.835938 82.371094 305.988281 82.453125 C 306.140625 82.53125 306.328125 82.472656 306.410156 82.324219 "/>
<path style=" stroke:none;fill-rule:nonzero;fill:rgb(89.7995%,78.819275%,72.158813%);fill-opacity:1;" d="M 297.6875 91.101562 C 297.6875 91.101562 317.734375 72.390625 304.949219 55.09375 C 296.757812 44.011719 292.664062 53.988281 292.664062 53.988281 L 297.6875 91.101562 "/>
<path style=" stroke:none;fill-rule:nonzero;fill:rgb(96.078491%,56.079102%,42.749023%);fill-opacity:1;" d="M 221.363281 73.644531 C 221.363281 93.863281 239.546875 110.253906 261.980469 110.253906 C 284.410156 110.253906 302.589844 93.863281 302.589844 73.644531 C 302.589844 53.425781 290.675781 35.222656 261.980469 37.035156 C 239.59375 38.449219 221.363281 53.425781 221.363281 73.644531 "/>
<path style=" stroke:none;fill-rule:nonzero;fill:rgb(89.019775%,49.409485%,38.42926%);fill-opacity:1;" d="M 237.460938 90.066406 C 237.460938 90.066406 240.476562 65.902344 225.503906 57.789062 C 222.855469 62.515625 221.363281 67.867188 221.363281 73.644531 C 221.363281 93.867188 239.546875 110.253906 261.980469 110.253906 C 273.867188 110.253906 284.5625 105.648438 291.992188 98.3125 C 281.042969 104.75 257.898438 113.589844 237.460938 90.066406 "/>
<path style=" stroke:none;fill-rule:nonzero;fill:rgb(89.408875%,47.839355%,36.859131%);fill-opacity:1;" d="M 245.574219 76.988281 C 245.574219 79.246094 248.964844 81.078125 253.144531 81.078125 C 257.328125 81.078125 260.71875 79.246094 260.71875 76.988281 C 260.71875 74.726562 257.328125 72.894531 253.144531 72.894531 C 248.964844 72.894531 245.574219 74.726562 245.574219 76.988281 "/>
<path style=" stroke:none;fill-rule:nonzero;fill:rgb(89.408875%,47.839355%,36.859131%);fill-opacity:1;" d="M 280.070312 75.722656 C 280.070312 77.984375 283.464844 79.816406 287.644531 79.816406 C 291.828125 79.816406 295.21875 77.984375 295.21875 75.722656 C 295.21875 73.464844 291.828125 71.632812 287.644531 71.632812 C 283.464844 71.632812 280.070312 73.464844 280.070312 75.722656 "/>
<path style=" stroke:none;fill-rule:nonzero;fill:rgb(21.958923%,14.509583%,11.369324%);fill-opacity:1;" d="M 252.964844 70.292969 C 253.449219 72.414062 254.882812 73.902344 256.171875 73.605469 C 257.457031 73.316406 258.113281 71.355469 257.625 69.230469 C 257.144531 67.105469 255.707031 65.621094 254.417969 65.914062 C 253.132812 66.203125 252.480469 68.164062 252.964844 70.292969 "/>
<path style=" stroke:none;fill-rule:nonzero;fill:rgb(89.7995%,78.819275%,72.158813%);fill-opacity:1;" d="M 259.285156 56 C 259.285156 56 261.742188 58.367188 259.097656 59.429688 C 256.457031 60.496094 247.117188 61.890625 245.835938 61.75 C 245.835938 61.75 243.667969 59.707031 247.945312 57.917969 C 252.214844 56.128906 257.492188 54.640625 259.285156 56 "/>
<path style=" stroke:none;fill-rule:nonzero;fill:rgb(21.958923%,14.509583%,11.369324%);fill-opacity:1;" d="M 283.773438 69.378906 C 284.203125 71.261719 285.382812 72.597656 286.40625 72.367188 C 287.433594 72.132812 287.917969 70.417969 287.488281 68.535156 C 287.058594 66.648438 285.882812 65.3125 284.855469 65.546875 C 283.828125 65.777344 283.34375 67.496094 283.773438 69.378906 "/>
<path style=" stroke:none;fill-rule:nonzero;fill:rgb(89.7995%,78.819275%,72.158813%);fill-opacity:1;" d="M 282.160156 57.289062 C 282.160156 57.289062 280.023438 59.6875 282.261719 60.707031 C 284.503906 61.730469 292.464844 62.96875 293.558594 62.808594 C 293.558594 62.808594 295.445312 60.734375 291.820312 59.019531 C 288.199219 57.304688 283.714844 55.902344 282.160156 57.289062 "/>
<path style=" stroke:none;fill-rule:nonzero;fill:rgb(96.078491%,56.079102%,42.749023%);fill-opacity:1;" d="M 226.203125 77.722656 C 229.101562 82.683594 227.964844 88.746094 223.652344 91.261719 C 219.339844 93.78125 213.484375 91.800781 210.582031 86.839844 C 207.679688 81.878906 208.820312 75.820312 213.136719 73.300781 C 217.445312 70.78125 223.296875 72.761719 226.203125 77.722656 "/>
<path style=" stroke:none;fill-rule:nonzero;fill:rgb(89.408875%,47.44873%,35.688782%);fill-opacity:1;" d="M 217.292969 89.660156 C 222.320312 90.929688 223.578125 86.371094 223.578125 86.371094 C 223.203125 86.535156 219.527344 87.265625 218.660156 85.152344 C 217.792969 83.039062 222.570312 81.894531 222.570312 81.894531 C 222.378906 80.566406 221.15625 75.628906 216.285156 76.074219 C 211.417969 76.519531 211.652344 81.800781 211.652344 81.800781 C 211.652344 81.800781 210.9375 88.0625 217.292969 89.660156 "/>
<path style=" stroke:none;fill-rule:nonzero;fill:rgb(66.668701%,31.369019%,23.529053%);fill-opacity:1;" d="M 212.039062 81.78125 L 212.039062 81.683594 C 212.039062 81.332031 212.085938 80.078125 212.652344 78.910156 C 213.226562 77.738281 214.238281 76.652344 216.324219 76.457031 C 216.519531 76.4375 216.710938 76.429688 216.894531 76.429688 C 218.929688 76.433594 220.164062 77.46875 220.976562 78.703125 C 221.78125 79.929688 222.105469 81.355469 222.191406 81.949219 L 222.574219 81.894531 L 222.484375 81.519531 C 222.472656 81.523438 221.449219 81.765625 220.402344 82.246094 C 219.878906 82.488281 219.347656 82.789062 218.925781 83.171875 C 218.503906 83.550781 218.171875 84.039062 218.167969 84.640625 C 218.167969 84.855469 218.210938 85.078125 218.304688 85.296875 C 218.589844 85.996094 219.15625 86.441406 219.769531 86.6875 C 220.382812 86.933594 221.0625 87.007812 221.683594 87.007812 C 222.171875 87.007812 222.617188 86.960938 222.976562 86.902344 C 223.152344 86.875 223.308594 86.84375 223.429688 86.816406 C 223.558594 86.78125 223.644531 86.757812 223.730469 86.722656 L 223.578125 86.371094 L 223.203125 86.265625 L 223.195312 86.296875 C 223.144531 86.46875 222.855469 87.320312 222.222656 88.105469 C 221.578125 88.886719 220.632812 89.597656 219.171875 89.597656 C 218.65625 89.597656 218.074219 89.507812 217.414062 89.292969 C 217.210938 89.230469 216.996094 89.339844 216.929688 89.542969 C 216.863281 89.742188 216.972656 89.960938 217.175781 90.027344 C 217.902344 90.265625 218.566406 90.367188 219.171875 90.367188 C 221.019531 90.371094 222.246094 89.371094 222.960938 88.410156 C 223.679688 87.441406 223.9375 86.5 223.949219 86.472656 C 223.988281 86.328125 223.941406 86.175781 223.832031 86.078125 C 223.71875 85.980469 223.5625 85.957031 223.421875 86.015625 C 223.421875 86.015625 223.351562 86.042969 223.25 86.0625 C 222.941406 86.140625 222.335938 86.238281 221.683594 86.238281 C 221.125 86.238281 220.535156 86.164062 220.054688 85.972656 C 219.574219 85.773438 219.21875 85.480469 219.015625 85 C 218.960938 84.867188 218.941406 84.75 218.941406 84.640625 C 218.941406 84.347656 219.109375 84.046875 219.441406 83.742188 C 219.9375 83.289062 220.753906 82.902344 221.4375 82.652344 C 221.78125 82.523438 222.089844 82.425781 222.308594 82.363281 C 222.535156 82.300781 222.664062 82.269531 222.664062 82.269531 C 222.859375 82.21875 222.984375 82.035156 222.957031 81.835938 C 222.855469 81.160156 222.523438 79.660156 221.625 78.28125 C 220.734375 76.90625 219.222656 75.652344 216.894531 75.65625 C 216.683594 75.65625 216.472656 75.667969 216.25 75.6875 C 213.898438 75.890625 212.589844 77.230469 211.957031 78.574219 C 211.3125 79.917969 211.265625 81.269531 211.265625 81.683594 L 211.269531 81.816406 C 211.277344 82.03125 211.460938 82.191406 211.671875 82.183594 C 211.882812 82.171875 212.050781 81.996094 212.039062 81.78125 "/>
<path style=" stroke:none;fill-rule:nonzero;fill:rgb(66.668701%,31.369019%,23.529053%);fill-opacity:1;" d="M 215.246094 83.140625 L 215.234375 83.117188 C 215.175781 82.976562 214.910156 82.273438 214.910156 81.417969 C 214.917969 80.519531 215.175781 79.484375 216.226562 78.589844 C 216.914062 78.015625 217.613281 77.828125 218.285156 77.824219 C 219.023438 77.824219 219.730469 78.066406 220.246094 78.320312 C 220.503906 78.445312 220.714844 78.570312 220.859375 78.664062 L 221.019531 78.773438 L 221.070312 78.808594 C 221.238281 78.941406 221.480469 78.910156 221.613281 78.742188 C 221.746094 78.574219 221.714844 78.332031 221.542969 78.203125 C 221.511719 78.183594 220.097656 77.0625 218.285156 77.054688 C 217.464844 77.050781 216.554688 77.304688 215.730469 78.003906 C 214.476562 79.050781 214.132812 80.371094 214.136719 81.417969 C 214.140625 82.574219 214.53125 83.429688 214.539062 83.460938 C 214.628906 83.65625 214.859375 83.742188 215.050781 83.652344 C 215.246094 83.566406 215.332031 83.339844 215.246094 83.140625 "/>
<path style=" stroke:none;fill-rule:nonzero;fill:rgb(66.668701%,31.369019%,23.529053%);fill-opacity:1;" d="M 274.257812 64.191406 C 274.25 64.214844 272.839844 67.921875 272.839844 71.59375 C 272.839844 72.992188 273.039062 74.394531 273.636719 75.59375 C 273.679688 75.683594 273.761719 75.757812 273.863281 75.789062 C 273.960938 75.820312 274.070312 75.8125 274.160156 75.761719 L 274.183594 75.753906 C 274.308594 75.691406 274.945312 75.414062 275.757812 75.414062 C 276.476562 75.417969 277.324219 75.617188 278.164062 76.382812 C 278.527344 76.707031 278.875 77.4375 278.871094 78.207031 C 278.867188 78.933594 278.589844 79.6875 277.785156 80.300781 C 276.980469 80.914062 275.59375 81.382812 273.367188 81.382812 C 273.222656 81.382812 273.082031 81.382812 272.9375 81.375 C 272.726562 81.371094 272.546875 81.539062 272.542969 81.753906 C 272.539062 81.96875 272.707031 82.140625 272.921875 82.148438 C 273.074219 82.152344 273.21875 82.152344 273.367188 82.152344 C 275.695312 82.152344 277.253906 81.667969 278.253906 80.917969 C 279.253906 80.164062 279.648438 79.136719 279.640625 78.207031 C 279.636719 77.21875 279.242188 76.332031 278.683594 75.8125 C 277.699219 74.910156 276.625 74.640625 275.757812 74.644531 C 274.628906 74.644531 273.835938 75.066406 273.800781 75.082031 L 273.980469 75.421875 L 274.328125 75.25 C 273.808594 74.207031 273.609375 72.917969 273.609375 71.59375 C 273.609375 69.855469 273.949219 68.0625 274.296875 66.714844 C 274.464844 66.039062 274.636719 65.472656 274.765625 65.078125 C 274.828125 64.882812 274.882812 64.726562 274.921875 64.621094 C 274.957031 64.515625 274.976562 64.464844 274.976562 64.464844 C 275.050781 64.261719 274.949219 64.042969 274.753906 63.96875 C 274.554688 63.890625 274.328125 63.992188 274.257812 64.191406 "/>
<path style=" stroke:none;fill-rule:nonzero;fill:rgb(66.668701%,31.369019%,23.529053%);fill-opacity:1;" d="M 276.773438 96.917969 C 276.703125 96.996094 274.84375 99.527344 268.777344 99.535156 C 268.5625 99.535156 268.390625 99.707031 268.390625 99.921875 C 268.390625 100.132812 268.5625 100.308594 268.777344 100.308594 C 275.269531 100.3125 277.359375 97.441406 277.40625 97.359375 C 277.527344 97.183594 277.484375 96.941406 277.308594 96.820312 C 277.132812 96.699219 276.894531 96.742188 276.773438 96.917969 "/>
<path style=" stroke:none;fill-rule:nonzero;fill:rgb(89.7995%,78.819275%,72.158813%);fill-opacity:1;" d="M 226.570312 79.382812 C 226.570312 79.382812 227.566406 85.632812 230.414062 84.207031 C 233.265625 82.78125 232.386719 77.273438 232.386719 73.582031 C 232.386719 69.890625 232.574219 57.789062 221.308594 55.476562 C 210.039062 53.160156 205.046875 61.9375 202.175781 68.957031 C 199.125 76.421875 205.066406 87.933594 210.582031 86.839844 C 210.582031 86.839844 206.867188 75.421875 214.523438 72.898438 C 223.578125 69.914062 226.570312 79.382812 226.570312 79.382812 "/>
<path style=" stroke:none;fill-rule:nonzero;fill:rgb(21.958923%,14.509583%,11.369324%);fill-opacity:1;" d="M 271.320312 91.976562 C 271.320312 93.730469 272.390625 95.160156 273.707031 95.160156 C 275.027344 95.160156 276.09375 93.730469 276.09375 91.976562 C 276.09375 90.214844 275.027344 88.789062 273.707031 88.789062 C 272.390625 88.789062 271.320312 90.214844 271.320312 91.976562 "/>
<path style=" stroke:none;fill-rule:nonzero;fill:rgb(96.078491%,56.079102%,42.749023%);fill-opacity:1;" d="M 234.394531 114.992188 C 234.394531 114.992188 246.46875 134.039062 239.429688 142.824219 C 239.429688 142.824219 235.632812 146.046875 230.636719 139.019531 C 230.636719 139.019531 217.558594 143.648438 211.628906 147.132812 L 232.464844 173.351562 L 227.523438 176.757812 C 227.523438 176.757812 192.382812 155.132812 189.742188 145.144531 C 187.105469 135.152344 225.253906 111.765625 234.394531 114.992188 "/>
<path style=" stroke:none;fill-rule:nonzero;fill:rgb(8.628845%,10.5896%,14.898682%);fill-opacity:1;" d="M 277.921875 70.472656 L 277.261719 70.472656 C 277.257812 72.773438 278.210938 74.863281 279.746094 76.367188 C 281.28125 77.867188 283.402344 78.796875 285.738281 78.796875 C 288.078125 78.796875 290.199219 77.867188 291.734375 76.367188 C 293.265625 74.863281 294.222656 72.773438 294.21875 70.472656 C 294.222656 68.171875 293.265625 66.085938 291.734375 64.585938 C 290.199219 63.078125 288.078125 62.148438 285.738281 62.148438 C 283.402344 62.148438 281.28125 63.078125 279.746094 64.585938 C 278.210938 66.085938 277.257812 68.171875 277.261719 70.472656 L 278.582031 70.472656 C 278.582031 68.539062 279.378906 66.792969 280.675781 65.523438 C 281.96875 64.253906 283.757812 63.46875 285.738281 63.464844 C 287.722656 63.46875 289.507812 64.253906 290.804688 65.523438 C 292.101562 66.792969 292.898438 68.539062 292.902344 70.472656 C 292.898438 72.40625 292.101562 74.152344 290.804688 75.421875 C 289.507812 76.695312 287.722656 77.480469 285.738281 77.480469 C 283.757812 77.480469 281.96875 76.695312 280.675781 75.421875 C 279.378906 74.152344 278.582031 72.40625 278.582031 70.472656 L 277.921875 70.472656 "/>
<path style=" stroke:none;fill-rule:nonzero;fill:rgb(8.628845%,10.5896%,14.898682%);fill-opacity:1;" d="M 249.96875 71 L 249.308594 71 C 249.308594 73.304688 250.261719 75.390625 251.796875 76.894531 C 253.328125 78.398438 255.453125 79.328125 257.789062 79.324219 C 260.121094 79.328125 262.246094 78.398438 263.78125 76.894531 C 265.3125 75.390625 266.269531 73.304688 266.269531 71 C 266.269531 68.703125 265.3125 66.613281 263.78125 65.113281 C 262.246094 63.609375 260.121094 62.675781 257.789062 62.675781 C 255.453125 62.675781 253.328125 63.609375 251.796875 65.113281 C 250.261719 66.613281 249.308594 68.703125 249.308594 71 L 250.628906 71 C 250.628906 69.070312 251.425781 67.324219 252.71875 66.050781 C 254.015625 64.78125 255.804688 63.996094 257.789062 63.996094 C 259.769531 63.996094 261.558594 64.78125 262.855469 66.050781 C 264.152344 67.324219 264.945312 69.070312 264.945312 71 C 264.945312 72.9375 264.152344 74.683594 262.855469 75.953125 C 261.558594 77.222656 259.769531 78.007812 257.789062 78.007812 C 255.804688 78.007812 254.015625 77.222656 252.71875 75.953125 C 251.425781 74.683594 250.628906 72.9375 250.628906 71 L 249.96875 71 "/>
<path style=" stroke:none;fill-rule:nonzero;fill:rgb(8.628845%,10.5896%,14.898682%);fill-opacity:1;" d="M 278.296875 67.164062 C 278.238281 67.125 275.820312 65.4375 272.359375 65.425781 C 270.136719 65.421875 267.488281 66.160156 264.921875 68.464844 L 265.804688 69.445312 C 268.148438 67.351562 270.421875 66.75 272.359375 66.746094 C 273.867188 66.746094 275.175781 67.125 276.101562 67.503906 C 276.566406 67.695312 276.933594 67.882812 277.183594 68.023438 C 277.304688 68.09375 277.398438 68.152344 277.460938 68.191406 L 277.527344 68.230469 L 277.542969 68.242188 L 278.296875 67.164062 "/>
<path style=" stroke:none;fill-rule:nonzero;fill:rgb(8.628845%,10.5896%,14.898682%);fill-opacity:1;" d="M 249.910156 70.347656 L 219.792969 72.988281 L 219.910156 74.300781 L 250.027344 71.660156 "/>
<path style=" stroke:none;fill-rule:nonzero;fill:rgb(8.628845%,10.5896%,14.898682%);fill-opacity:1;" d="M 293.382812 69.589844 L 308.648438 73.867188 C 308.996094 73.96875 309.363281 73.761719 309.460938 73.410156 C 309.558594 73.0625 309.351562 72.699219 309 72.601562 L 293.738281 68.320312 C 293.390625 68.222656 293.023438 68.425781 292.925781 68.777344 C 292.828125 69.128906 293.03125 69.492188 293.382812 69.589844 "/>
<path style=" stroke:none;fill-rule:nonzero;fill:rgb(8.628845%,10.5896%,14.898682%);fill-opacity:1;" d="M 165.828125 242.6875 C 164.089844 242.390625 162.425781 242.542969 161.039062 243.433594 C 154.878906 247.390625 156.28125 257.054688 151.882812 262.324219 C 149.476562 265.207031 141.839844 278.4375 144.917969 281.953125 C 145.035156 282.085938 145.15625 282.207031 145.28125 282.324219 C 148.664062 274.136719 157.507812 262.351562 158.921875 257.054688 C 160.15625 252.421875 163.777344 246.066406 165.828125 242.6875 "/>
<path style=" stroke:none;fill-rule:nonzero;fill:rgb(89.019775%,49.409485%,38.42926%);fill-opacity:1;" d="M 232.515625 127.304688 C 217.433594 131.699219 202.476562 142.175781 203.0625 145.722656 C 203.394531 147.738281 207.5625 147.285156 211.78125 147.324219 L 211.628906 147.132812 C 217.558594 143.648438 230.636719 139.019531 230.636719 139.019531 C 235.632812 146.046875 239.429688 142.824219 239.429688 142.824219 C 242.53125 138.957031 241.921875 133.089844 240.269531 127.742188 C 238.492188 126.625 236 126.289062 232.515625 127.304688 "/>
<path style=" stroke:none;fill-rule:nonzero;fill:rgb(89.019775%,49.409485%,38.42926%);fill-opacity:1;" d="M 227.800781 176.566406 C 220.25 169.691406 198.117188 148.949219 192.777344 137.511719 C 190.417969 140.398438 189.191406 143.0625 189.742188 145.144531 C 192.382812 155.132812 227.523438 176.757812 227.523438 176.757812 L 227.800781 176.566406 "/>
<path style=" stroke:none;fill-rule:nonzero;fill:rgb(27.839661%,14.118958%,12.548828%);fill-opacity:1;" d="M 239.085938 115.144531 C 239.085938 115.148438 239.164062 115.359375 239.304688 115.757812 C 240.300781 118.546875 244.285156 130.332031 244.277344 138.914062 C 244.28125 141.621094 243.875 143.992188 242.921875 145.636719 C 242.441406 146.457031 241.835938 147.097656 241.066406 147.542969 C 240.292969 147.988281 239.347656 148.234375 238.171875 148.234375 C 236.707031 148.234375 234.894531 147.84375 232.683594 146.9375 C 232.457031 146.84375 232.199219 146.953125 232.105469 147.175781 C 232.015625 147.402344 232.121094 147.65625 232.347656 147.75 C 234.628906 148.683594 236.550781 149.113281 238.171875 149.113281 C 239.472656 149.117188 240.582031 148.832031 241.503906 148.304688 C 242.886719 147.511719 243.804688 146.183594 244.367188 144.5625 C 244.929688 142.9375 245.15625 141.007812 245.15625 138.914062 C 245.152344 128.832031 239.910156 114.863281 239.90625 114.839844 C 239.824219 114.609375 239.570312 114.496094 239.339844 114.582031 C 239.113281 114.664062 239 114.917969 239.085938 115.144531 "/>
<path style=" stroke:none;fill-rule:nonzero;fill:rgb(27.839661%,14.118958%,12.548828%);fill-opacity:1;" d="M 249.699219 157.484375 C 249.703125 157.484375 259.230469 164.78125 270.207031 172.636719 C 275.691406 176.558594 281.542969 180.621094 286.746094 183.984375 C 291.953125 187.34375 296.5 190 299.449219 191.125 C 299.671875 191.214844 299.929688 191.097656 300.015625 190.871094 C 300.101562 190.644531 299.988281 190.390625 299.761719 190.304688 C 296.945312 189.234375 292.402344 186.59375 287.222656 183.246094 C 279.445312 178.222656 270.195312 171.605469 262.894531 166.246094 C 259.242188 163.566406 256.078125 161.203125 253.824219 159.507812 C 252.699219 158.660156 251.800781 157.976562 251.1875 157.507812 C 250.570312 157.039062 250.238281 156.785156 250.234375 156.785156 C 250.042969 156.636719 249.769531 156.675781 249.617188 156.867188 C 249.472656 157.0625 249.507812 157.335938 249.699219 157.484375 "/>
<path style=" stroke:none;fill-rule:nonzero;fill:rgb(27.839661%,14.118958%,12.548828%);fill-opacity:1;" d="M 253.179688 165.96875 C 253.183594 165.972656 258.804688 171.6875 265.640625 178.015625 C 269.058594 181.179688 272.777344 184.492188 276.253906 187.324219 C 279.734375 190.15625 282.960938 192.503906 285.4375 193.742188 C 285.652344 193.851562 285.917969 193.765625 286.027344 193.546875 C 286.136719 193.332031 286.046875 193.066406 285.832031 192.957031 C 283.46875 191.78125 280.265625 189.457031 276.8125 186.644531 C 271.628906 182.425781 265.875 177.097656 261.421875 172.832031 C 259.191406 170.695312 257.289062 168.828125 255.941406 167.488281 C 254.597656 166.15625 253.8125 165.355469 253.808594 165.351562 C 253.636719 165.179688 253.359375 165.175781 253.1875 165.347656 C 253.011719 165.515625 253.011719 165.796875 253.179688 165.96875 "/>
<path style=" stroke:none;fill-rule:nonzero;fill:rgb(27.839661%,14.118958%,12.548828%);fill-opacity:1;" d="M 279.996094 118.296875 C 279.996094 118.296875 280.007812 118.390625 280.035156 118.570312 C 280.109375 119.109375 280.257812 120.410156 280.257812 122.085938 C 280.261719 124.675781 279.894531 128.15625 278.371094 131.097656 C 276.835938 134.039062 274.210938 136.457031 269.507812 137.078125 L 269.496094 137.078125 L 269.460938 137.082031 C 269.371094 137.09375 269.136719 137.117188 268.773438 137.117188 C 267.375 137.113281 264.125 136.78125 260.285156 134.101562 C 256.449219 131.421875 252.003906 126.378906 248.273438 116.894531 C 248.183594 116.667969 247.929688 116.554688 247.703125 116.644531 C 247.476562 116.734375 247.367188 116.988281 247.457031 117.214844 C 251.234375 126.816406 255.777344 132.027344 259.78125 134.824219 C 263.785156 137.621094 267.238281 137.996094 268.773438 137.996094 C 269.308594 137.996094 269.609375 137.949219 269.628906 137.949219 L 269.5625 137.511719 L 269.621094 137.949219 C 274.59375 137.3125 277.535156 134.644531 279.152344 131.503906 C 280.773438 128.359375 281.140625 124.757812 281.140625 122.085938 C 281.140625 119.78125 280.863281 118.167969 280.863281 118.152344 C 280.820312 117.910156 280.59375 117.75 280.355469 117.792969 C 280.113281 117.832031 279.953125 118.058594 279.996094 118.296875 "/>
<path style=" stroke:none;fill-rule:nonzero;fill:rgb(27.839661%,14.118958%,12.548828%);fill-opacity:1;" d="M 295.65625 154.515625 C 295.652344 154.507812 294.910156 149.320312 293.332031 142.875 C 291.753906 136.421875 289.359375 128.714844 286 123.613281 C 285.867188 123.410156 285.59375 123.355469 285.390625 123.488281 C 285.1875 123.625 285.128906 123.894531 285.265625 124.097656 C 288.515625 129.023438 290.917969 136.675781 292.476562 143.082031 C 293.261719 146.285156 293.835938 149.175781 294.21875 151.265625 C 294.410156 152.3125 294.550781 153.15625 294.644531 153.738281 C 294.738281 154.324219 294.785156 154.640625 294.785156 154.640625 C 294.820312 154.882812 295.042969 155.050781 295.28125 155.015625 C 295.523438 154.980469 295.691406 154.757812 295.65625 154.515625 "/>
<path style=" stroke:none;fill-rule:nonzero;fill:rgb(96.078491%,56.079102%,42.749023%);fill-opacity:1;" d="M 231.398438 189.835938 C 226.953125 189.011719 223.398438 181.375 222.820312 179.503906 C 222.242188 177.636719 223.070312 173.925781 223.070312 173.925781 L 230.78125 171.234375 C 230.78125 171.234375 241.054688 169.4375 240.90625 173.484375 L 240.308594 175.339844 C 240.308594 175.339844 247.738281 182.28125 244.71875 184.125 C 242.855469 185.261719 240.855469 184.785156 240.855469 184.785156 C 240.855469 184.785156 240.636719 188.078125 237.449219 187.636719 C 237.449219 187.636719 236.035156 189.835938 233.828125 189.066406 C 233.828125 189.066406 234.367188 190.386719 231.398438 189.835938 "/>
<path style=" stroke:none;fill-rule:nonzero;fill:rgb(96.078491%,56.079102%,42.749023%);fill-opacity:1;" d="M 341.289062 125.167969 C 341.289062 125.167969 337.753906 116.347656 341.492188 114.101562 C 345.230469 111.855469 346.769531 114.992188 346.769531 114.992188 C 346.769531 114.992188 348.53125 109.3125 352.050781 110.253906 C 355.570312 111.195312 354.03125 114.101562 354.03125 114.101562 C 354.03125 114.101562 361.289062 110.609375 360.1875 117.054688 C 360.1875 117.054688 365.6875 117.566406 362.390625 122.175781 C 362.390625 122.175781 366.785156 125.035156 361.726562 128.765625 C 356.667969 132.503906 349.628906 132.941406 344.679688 130.746094 C 339.734375 128.546875 341.289062 125.167969 341.289062 125.167969 "/>
<path style=" stroke:none;fill-rule:nonzero;fill:rgb(27.839661%,14.118958%,12.548828%);fill-opacity:1;" d="M 346.378906 115.195312 C 346.378906 115.195312 346.503906 115.433594 346.695312 115.835938 C 346.976562 116.4375 347.40625 117.390625 347.757812 118.398438 C 348.113281 119.40625 348.386719 120.476562 348.382812 121.242188 C 348.386719 121.636719 348.308594 121.941406 348.191406 122.109375 C 348.074219 122.273438 347.945312 122.367188 347.621094 122.402344 C 347.484375 122.410156 347.351562 122.414062 347.222656 122.414062 C 345.941406 122.410156 345.074219 121.964844 344.378906 121.289062 C 343.683594 120.609375 343.183594 119.675781 342.773438 118.738281 C 342.675781 118.515625 342.417969 118.414062 342.195312 118.515625 C 341.972656 118.609375 341.871094 118.871094 341.96875 119.089844 C 342.394531 120.066406 342.933594 121.101562 343.761719 121.914062 C 344.585938 122.730469 345.722656 123.296875 347.222656 123.292969 C 347.371094 123.292969 347.523438 123.285156 347.683594 123.277344 C 348.214844 123.246094 348.675781 122.988281 348.925781 122.59375 C 349.179688 122.203125 349.261719 121.734375 349.261719 121.242188 C 349.257812 119.972656 348.726562 118.394531 348.203125 117.089844 C 347.683594 115.796875 347.167969 114.796875 347.160156 114.789062 C 347.050781 114.574219 346.785156 114.492188 346.566406 114.601562 C 346.351562 114.714844 346.269531 114.980469 346.378906 115.195312 "/>
<path style=" stroke:none;fill-rule:nonzero;fill:rgb(27.839661%,14.118958%,12.548828%);fill-opacity:1;" d="M 348.71875 119.945312 C 348.738281 119.941406 349.84375 119.535156 351.0625 118.738281 C 352.269531 117.9375 353.621094 116.753906 354.019531 115.09375 C 354.074219 114.855469 353.925781 114.621094 353.691406 114.566406 C 353.453125 114.511719 353.214844 114.65625 353.160156 114.894531 C 352.871094 116.179688 351.710938 117.265625 350.578125 118 C 350.015625 118.371094 349.472656 118.65625 349.066406 118.84375 C 348.863281 118.9375 348.703125 119.007812 348.585938 119.054688 C 348.472656 119.101562 348.414062 119.125 348.414062 119.125 C 348.183594 119.207031 348.070312 119.460938 348.152344 119.6875 C 348.238281 119.914062 348.492188 120.03125 348.71875 119.945312 "/>
<path style=" stroke:none;fill-rule:nonzero;fill:rgb(27.839661%,14.118958%,12.548828%);fill-opacity:1;" d="M 358.570312 118.601562 C 358.570312 118.601562 358.492188 118.675781 358.34375 118.804688 C 357.832031 119.265625 356.507812 120.421875 355.046875 121.460938 C 354.320312 121.980469 353.554688 122.472656 352.851562 122.832031 C 352.152344 123.191406 351.503906 123.40625 351.0625 123.417969 L 350.820312 123.421875 C 349.710938 123.421875 348.988281 123.183594 348.550781 122.960938 C 348.335938 122.847656 348.1875 122.738281 348.101562 122.664062 L 348.007812 122.578125 L 347.988281 122.5625 L 347.910156 122.628906 L 347.992188 122.5625 L 347.988281 122.5625 L 347.910156 122.628906 L 347.992188 122.5625 C 347.839844 122.375 347.5625 122.34375 347.375 122.496094 C 347.183594 122.648438 347.152344 122.921875 347.308594 123.113281 C 347.359375 123.195312 348.339844 124.308594 350.820312 124.300781 L 351.089844 124.296875 C 351.859375 124.269531 352.699219 123.917969 353.578125 123.4375 C 356.207031 121.996094 359.152344 119.257812 359.167969 119.246094 C 359.347656 119.082031 359.355469 118.804688 359.191406 118.625 C 359.023438 118.449219 358.746094 118.4375 358.570312 118.601562 "/>
<path style=" stroke:none;fill-rule:nonzero;fill:rgb(27.839661%,14.118958%,12.548828%);fill-opacity:1;" d="M 360.273438 123.597656 L 360.25 123.625 C 360.117188 123.804688 359.4375 124.648438 358.378906 125.4375 C 357.320312 126.226562 355.898438 126.953125 354.273438 126.949219 C 353.964844 126.949219 353.652344 126.925781 353.332031 126.871094 C 351.277344 126.515625 350.292969 125.71875 349.785156 125.046875 C 349.535156 124.707031 349.402344 124.394531 349.335938 124.167969 C 349.300781 124.058594 349.277344 123.964844 349.269531 123.90625 L 349.261719 123.847656 L 349.261719 123.832031 L 349.132812 123.84375 L 349.261719 123.839844 L 349.261719 123.832031 L 349.132812 123.84375 L 349.261719 123.839844 C 349.25 123.597656 349.042969 123.410156 348.800781 123.421875 C 348.554688 123.4375 348.367188 123.640625 348.382812 123.882812 C 348.386719 123.941406 348.4375 124.707031 349.082031 125.570312 C 349.71875 126.4375 350.953125 127.359375 353.1875 127.738281 C 353.554688 127.796875 353.917969 127.828125 354.273438 127.828125 C 356.292969 127.828125 357.964844 126.886719 359.128906 125.96875 C 360.296875 125.046875 360.964844 124.136719 360.980469 124.117188 C 361.128906 123.921875 361.085938 123.648438 360.886719 123.503906 C 360.695312 123.359375 360.417969 123.398438 360.273438 123.597656 "/>
<path style=" stroke:none;fill-rule:nonzero;fill:rgb(27.839661%,14.118958%,12.548828%);fill-opacity:1;" d="M 348.40625 125.480469 L 348.394531 125.507812 C 348.332031 125.679688 347.964844 126.558594 347.195312 127.367188 C 346.417969 128.179688 345.269531 128.925781 343.539062 128.929688 C 343.199219 128.929688 342.832031 128.898438 342.441406 128.835938 C 342.203125 128.792969 341.972656 128.957031 341.933594 129.195312 C 341.898438 129.433594 342.058594 129.660156 342.296875 129.699219 C 342.734375 129.773438 343.148438 129.808594 343.539062 129.808594 C 345.675781 129.808594 347.128906 128.789062 348.003906 127.785156 C 348.886719 126.785156 349.222656 125.800781 349.238281 125.765625 C 349.316406 125.539062 349.195312 125.289062 348.964844 125.210938 C 348.734375 125.132812 348.484375 125.25 348.40625 125.480469 "/>
<path style=" stroke:none;fill-rule:nonzero;fill:rgb(89.7995%,78.819275%,72.158813%);fill-opacity:1;" d="M 69.511719 73.734375 C 69.511719 73.734375 67.554688 87.605469 62.34375 92.628906 C 57.128906 97.648438 40.183594 102.71875 38.855469 118.15625 C 38.109375 126.828125 57.453125 164.6875 82.289062 160.132812 C 95.804688 157.65625 112.839844 155.582031 122.46875 142.5625 C 126.921875 136.542969 158.484375 115.226562 160.433594 82.683594 L 69.511719 73.734375 "/>
<path style=" stroke:none;fill-rule:nonzero;fill:rgb(96.078491%,56.079102%,42.749023%);fill-opacity:1;" d="M 195.914062 128.3125 C 195.914062 128.3125 192.3125 119.328125 196.121094 117.039062 C 199.929688 114.75 201.5 117.949219 201.5 117.949219 C 201.5 117.949219 203.292969 112.164062 206.875 113.121094 C 210.460938 114.078125 208.890625 117.039062 208.890625 117.039062 C 208.890625 117.039062 216.289062 113.484375 215.167969 120.046875 C 215.167969 120.046875 220.769531 120.566406 217.410156 125.269531 C 217.410156 125.269531 221.890625 128.175781 216.734375 131.980469 C 211.582031 135.785156 204.410156 136.234375 199.367188 133.996094 C 194.328125 131.757812 195.914062 128.3125 195.914062 128.3125 "/>
<path style=" stroke:none;fill-rule:nonzero;fill:rgb(27.839661%,14.118958%,12.548828%);fill-opacity:1;" d="M 201.101562 118.15625 C 201.101562 118.15625 201.226562 118.398438 201.421875 118.804688 C 201.710938 119.417969 202.144531 120.394531 202.503906 121.421875 C 202.867188 122.445312 203.144531 123.53125 203.140625 124.3125 C 203.144531 124.71875 203.066406 125.023438 202.949219 125.195312 C 202.828125 125.367188 202.699219 125.460938 202.363281 125.492188 C 202.222656 125.503906 202.089844 125.507812 201.957031 125.507812 C 200.65625 125.503906 199.773438 125.050781 199.058594 124.363281 C 198.355469 123.667969 197.84375 122.71875 197.429688 121.765625 C 197.332031 121.539062 197.066406 121.433594 196.839844 121.535156 C 196.613281 121.632812 196.507812 121.898438 196.609375 122.125 C 197.042969 123.117188 197.589844 124.171875 198.433594 125 C 199.273438 125.828125 200.433594 126.40625 201.957031 126.402344 C 202.109375 126.402344 202.265625 126.398438 202.425781 126.386719 C 202.972656 126.355469 203.4375 126.09375 203.695312 125.691406 C 203.957031 125.292969 204.035156 124.816406 204.039062 124.3125 C 204.03125 123.019531 203.492188 121.410156 202.960938 120.089844 C 202.429688 118.769531 201.902344 117.75 201.898438 117.742188 C 201.785156 117.523438 201.511719 117.4375 201.292969 117.550781 C 201.074219 117.667969 200.988281 117.9375 201.101562 118.15625 "/>
<path style=" stroke:none;fill-rule:nonzero;fill:rgb(27.839661%,14.118958%,12.548828%);fill-opacity:1;" d="M 203.480469 122.996094 C 203.5 122.988281 204.632812 122.574219 205.871094 121.761719 C 207.101562 120.949219 208.476562 119.742188 208.882812 118.050781 C 208.9375 117.8125 208.789062 117.570312 208.546875 117.511719 C 208.304688 117.457031 208.066406 117.605469 208.007812 117.847656 C 207.710938 119.160156 206.53125 120.265625 205.378906 121.011719 C 204.804688 121.390625 204.25 121.675781 203.839844 121.871094 C 203.632812 121.964844 203.464844 122.039062 203.347656 122.085938 C 203.230469 122.136719 203.171875 122.15625 203.171875 122.15625 C 202.941406 122.242188 202.820312 122.5 202.90625 122.730469 C 202.992188 122.964844 203.25 123.082031 203.480469 122.996094 "/>
<path style=" stroke:none;fill-rule:nonzero;fill:rgb(27.839661%,14.118958%,12.548828%);fill-opacity:1;" d="M 213.519531 121.625 C 213.519531 121.625 213.4375 121.699219 213.289062 121.832031 C 212.765625 122.300781 211.417969 123.476562 209.933594 124.539062 C 209.1875 125.066406 208.410156 125.566406 207.695312 125.929688 C 206.980469 126.296875 206.324219 126.519531 205.871094 126.53125 L 205.625 126.535156 C 204.492188 126.53125 203.761719 126.289062 203.316406 126.0625 C 203.09375 125.949219 202.945312 125.839844 202.851562 125.761719 L 202.757812 125.675781 L 202.742188 125.65625 L 202.660156 125.730469 L 202.746094 125.660156 L 202.742188 125.65625 L 202.660156 125.730469 L 202.746094 125.660156 C 202.589844 125.46875 202.308594 125.4375 202.113281 125.589844 C 201.921875 125.746094 201.890625 126.027344 202.046875 126.21875 C 202.101562 126.304688 203.097656 127.433594 205.625 127.429688 L 205.902344 127.425781 C 206.683594 127.394531 207.539062 127.039062 208.4375 126.550781 C 211.109375 125.082031 214.113281 122.289062 214.128906 122.28125 C 214.308594 122.113281 214.316406 121.832031 214.152344 121.648438 C 213.984375 121.464844 213.699219 121.457031 213.519531 121.625 "/>
<path style=" stroke:none;fill-rule:nonzero;fill:rgb(27.839661%,14.118958%,12.548828%);fill-opacity:1;" d="M 215.253906 126.710938 L 215.230469 126.746094 C 215.09375 126.921875 214.398438 127.785156 213.324219 128.585938 C 212.242188 129.394531 210.792969 130.132812 209.136719 130.128906 C 208.828125 130.128906 208.511719 130.101562 208.183594 130.046875 C 206.085938 129.6875 205.085938 128.875 204.570312 128.1875 C 204.3125 127.84375 204.179688 127.523438 204.109375 127.292969 C 204.074219 127.179688 204.054688 127.089844 204.046875 127.03125 L 204.039062 126.964844 L 204.035156 126.953125 L 203.890625 126.964844 L 204.035156 126.957031 L 204.035156 126.953125 L 203.890625 126.964844 L 204.035156 126.957031 C 204.023438 126.710938 203.8125 126.523438 203.566406 126.535156 C 203.320312 126.546875 203.128906 126.761719 203.140625 127.003906 C 203.144531 127.0625 203.195312 127.84375 203.851562 128.722656 C 204.503906 129.605469 205.761719 130.546875 208.035156 130.929688 C 208.410156 130.996094 208.777344 131.023438 209.136719 131.023438 C 211.195312 131.023438 212.902344 130.0625 214.089844 129.128906 C 215.277344 128.191406 215.960938 127.265625 215.976562 127.242188 C 216.125 127.042969 216.078125 126.765625 215.878906 126.617188 C 215.683594 126.472656 215.402344 126.511719 215.253906 126.710938 "/>
<path style=" stroke:none;fill-rule:nonzero;fill:rgb(27.839661%,14.118958%,12.548828%);fill-opacity:1;" d="M 203.167969 128.632812 L 203.15625 128.660156 C 203.089844 128.835938 202.71875 129.730469 201.929688 130.554688 C 201.140625 131.378906 199.972656 132.140625 198.210938 132.140625 C 197.863281 132.140625 197.488281 132.113281 197.09375 132.046875 C 196.847656 132.007812 196.617188 132.171875 196.578125 132.414062 C 196.535156 132.660156 196.699219 132.886719 196.945312 132.929688 C 197.390625 133.003906 197.808594 133.039062 198.210938 133.039062 C 200.386719 133.042969 201.867188 132 202.757812 130.980469 C 203.652344 129.957031 204 128.957031 204.011719 128.925781 C 204.09375 128.691406 203.96875 128.4375 203.734375 128.355469 C 203.503906 128.273438 203.246094 128.398438 203.167969 128.632812 "/>
<path style=" stroke:none;fill-rule:nonzero;fill:rgb(96.078491%,56.079102%,42.749023%);fill-opacity:1;" d="M 29.09375 194.539062 C 27.097656 190.394531 31.246094 182.886719 32.433594 181.285156 C 33.625 179.683594 37.175781 178.128906 37.175781 178.128906 L 44.03125 182.84375 C 44.03125 182.84375 51.695312 190.191406 48.269531 192.503906 L 46.386719 193.128906 C 46.386719 193.128906 45.144531 203.40625 41.808594 202.035156 C 39.753906 201.1875 38.945312 199.265625 38.945312 199.265625 C 38.945312 199.265625 36.101562 201.066406 34.542969 198.183594 C 34.542969 198.183594 31.882812 198.347656 31.1875 196.070312 C 31.1875 196.070312 30.429688 197.308594 29.09375 194.539062 "/>
<path style=" stroke:none;fill-rule:nonzero;fill:rgb(48.239136%,19.999695%,55.288696%);fill-opacity:1;" d="M 144.355469 134.296875 C 144.355469 134.296875 166.113281 148.210938 171.488281 155.578125 C 171.488281 155.578125 190.902344 127.609375 194.8125 128.738281 C 198.71875 129.867188 203.609375 131.472656 204.585938 137.261719 C 205.566406 143.050781 186.011719 179.519531 176.722656 182.761719 C 167.4375 186.007812 140.046875 166.269531 138.589844 165.292969 C 137.128906 164.316406 142.78125 136.773438 144.355469 134.296875 "/>
<g clip-path="url(#clip3)" clip-rule="nonzero">
<path style=" stroke:none;fill-rule:nonzero;fill:rgb(89.7995%,78.819275%,72.158813%);fill-opacity:1;" d="M 147.953125 338.875 C 147.953125 338.875 144.191406 354.320312 150.75 357.867188 C 157.308594 361.410156 161.304688 355.511719 168.175781 356.84375 C 171.9375 357.570312 187.511719 357.875 189.136719 353.40625 C 190.769531 348.933594 185.632812 343.328125 178.976562 342.390625 C 172.316406 341.453125 163.835938 339.847656 161.714844 336.925781 C 159.59375 334.007812 147.953125 338.875 147.953125 338.875 "/>
</g>
<path style=" stroke:none;fill-rule:nonzero;fill:rgb(89.7995%,78.819275%,72.158813%);fill-opacity:1;" d="M 34.234375 261.554688 C 34.234375 261.554688 21.101562 252.570312 15.460938 257.445312 C 9.816406 262.316406 12.621094 271.863281 8.941406 277.808594 C 6.929688 281.0625 3.441406 290.453125 7.054688 293.554688 C 10.664062 296.65625 17.730469 293.84375 20.964844 287.960938 C 24.199219 282.074219 27.703125 276.046875 31.1875 275.097656 C 34.675781 274.148438 34.234375 261.554688 34.234375 261.554688 "/>
<path style=" stroke:none;fill-rule:nonzero;fill:rgb(54.899597%,9.408569%,21.958923%);fill-opacity:1;" d="M 81.324219 209.859375 C 81.324219 209.859375 75.703125 227.035156 71.140625 254.183594 C 71.140625 254.183594 40.828125 258.582031 34.648438 258.105469 C 28.46875 257.628906 27.417969 274.050781 29.601562 279.84375 C 29.601562 279.84375 71.425781 289.066406 84.871094 288.394531 C 98.3125 287.722656 127.046875 252.746094 127.046875 252.746094 L 141.441406 289.019531 L 146.910156 338.640625 C 146.910156 338.640625 162.46875 344.546875 165.585938 341.332031 C 172.085938 334.636719 174.257812 293.253906 173.714844 277.765625 C 173.03125 258.28125 160.320312 212.621094 158.757812 212.582031 C 157.199219 212.535156 81.324219 209.859375 81.324219 209.859375 "/>
<path style=" stroke:none;fill-rule:nonzero;fill:rgb(50.19989%,8.239746%,21.569824%);fill-opacity:1;" d="M 158.757812 212.582031 C 157.199219 212.535156 81.324219 209.859375 81.324219 209.859375 C 81.324219 209.859375 75.703125 227.035156 71.140625 254.183594 C 71.140625 254.183594 40.828125 258.582031 34.648438 258.105469 C 32.628906 257.949219 31.15625 259.609375 30.167969 262.101562 C 45.386719 264.632812 73.167969 268.929688 78.351562 267.527344 C 85.566406 265.574219 90.820312 236.078125 90.820312 236.078125 C 103.363281 236.820312 147.121094 234.753906 165.53125 233.824219 C 162.421875 221.863281 159.460938 212.597656 158.757812 212.582031 "/>
<path style=" stroke:none;fill-rule:nonzero;fill:rgb(8.628845%,10.5896%,14.898682%);fill-opacity:1;" d="M 20.179688 256.003906 C 18.382812 255.957031 16.730469 256.347656 15.460938 257.445312 C 9.816406 262.316406 12.621094 271.863281 8.941406 277.808594 C 6.929688 281.0625 3.441406 290.453125 7.054688 293.554688 C 7.1875 293.671875 7.328125 293.773438 7.472656 293.875 C 10.699219 284.699219 14.617188 277.027344 15.28125 271.484375 C 15.863281 266.636719 18.597656 259.703125 20.179688 256.003906 "/>
<path style=" stroke:none;fill-rule:nonzero;fill:rgb(27.839661%,14.118958%,12.548828%);fill-opacity:1;" d="M 161.652344 219.394531 C 161.648438 219.394531 160.722656 219.433594 159.023438 219.472656 C 157.328125 219.511719 154.867188 219.550781 151.8125 219.550781 C 137.304688 219.550781 109.394531 218.667969 86.421875 212.742188 C 86.214844 212.691406 86.003906 212.816406 85.949219 213.023438 C 85.894531 213.230469 86.019531 213.445312 86.226562 213.5 C 109.324219 219.453125 137.269531 220.328125 151.8125 220.328125 C 157.933594 220.328125 161.679688 220.171875 161.683594 220.171875 C 161.898438 220.164062 162.066406 219.980469 162.058594 219.765625 C 162.046875 219.550781 161.867188 219.386719 161.652344 219.394531 "/>
<path style=" stroke:none;fill-rule:nonzero;fill:rgb(27.839661%,14.118958%,12.548828%);fill-opacity:1;" d="M 83.890625 213.144531 L 84.335938 219.964844 C 84.351562 220.179688 84.535156 220.339844 84.75 220.328125 C 84.964844 220.3125 85.128906 220.128906 85.113281 219.914062 L 84.667969 213.09375 C 84.65625 212.882812 84.46875 212.71875 84.253906 212.730469 C 84.039062 212.746094 83.878906 212.929688 83.890625 213.144531 "/>
<path style=" stroke:none;fill-rule:nonzero;fill:rgb(27.839661%,14.118958%,12.548828%);fill-opacity:1;" d="M 90.433594 214.238281 L 91.121094 221.707031 C 91.140625 221.921875 91.328125 222.078125 91.542969 222.058594 C 91.757812 222.039062 91.914062 221.851562 91.894531 221.636719 L 91.210938 214.167969 C 91.191406 213.953125 91 213.796875 90.785156 213.816406 C 90.570312 213.835938 90.414062 214.023438 90.433594 214.238281 "/>
<path style=" stroke:none;fill-rule:nonzero;fill:rgb(27.839661%,14.118958%,12.548828%);fill-opacity:1;" d="M 98.617188 215.835938 L 98.617188 223.113281 C 98.617188 223.328125 98.789062 223.503906 99.003906 223.503906 C 99.222656 223.503906 99.394531 223.328125 99.394531 223.113281 L 99.394531 215.835938 C 99.394531 215.621094 99.222656 215.449219 99.003906 215.449219 C 98.789062 215.449219 98.617188 215.621094 98.617188 215.835938 "/>
<path style=" stroke:none;fill-rule:nonzero;fill:rgb(27.839661%,14.118958%,12.548828%);fill-opacity:1;" d="M 107.136719 217.164062 L 107.136719 224.558594 C 107.136719 224.773438 107.3125 224.945312 107.527344 224.945312 C 107.742188 224.945312 107.917969 224.773438 107.917969 224.558594 L 107.917969 217.164062 C 107.917969 216.949219 107.742188 216.773438 107.527344 216.773438 C 107.3125 216.773438 107.136719 216.949219 107.136719 217.164062 "/>
<path style=" stroke:none;fill-rule:nonzero;fill:rgb(27.839661%,14.118958%,12.548828%);fill-opacity:1;" d="M 117.15625 218.289062 L 116.46875 224.511719 C 116.445312 224.726562 116.601562 224.921875 116.8125 224.945312 C 117.027344 224.964844 117.222656 224.8125 117.246094 224.597656 L 117.933594 218.375 C 117.957031 218.160156 117.800781 217.96875 117.589844 217.945312 C 117.375 217.921875 117.183594 218.074219 117.15625 218.289062 "/>
<path style=" stroke:none;fill-rule:nonzero;fill:rgb(27.839661%,14.118958%,12.548828%);fill-opacity:1;" d="M 126.152344 219.019531 L 125.03125 225.714844 C 124.996094 225.925781 125.140625 226.128906 125.351562 226.164062 C 125.566406 226.199219 125.765625 226.054688 125.800781 225.84375 L 126.921875 219.144531 C 126.957031 218.933594 126.816406 218.734375 126.601562 218.695312 C 126.390625 218.660156 126.1875 218.804688 126.152344 219.019531 "/>
<path style=" stroke:none;fill-rule:nonzero;fill:rgb(27.839661%,14.118958%,12.548828%);fill-opacity:1;" d="M 136.039062 219.558594 L 134.925781 226.269531 C 134.890625 226.480469 135.035156 226.683594 135.25 226.71875 C 135.460938 226.753906 135.664062 226.609375 135.699219 226.398438 L 136.808594 219.6875 C 136.84375 219.476562 136.703125 219.273438 136.488281 219.238281 C 136.277344 219.203125 136.074219 219.347656 136.039062 219.558594 "/>
<path style=" stroke:none;fill-rule:nonzero;fill:rgb(27.839661%,14.118958%,12.548828%);fill-opacity:1;" d="M 146.382812 219.859375 L 145.15625 225.699219 C 145.113281 225.910156 145.25 226.117188 145.460938 226.160156 C 145.671875 226.203125 145.878906 226.070312 145.921875 225.859375 L 147.144531 220.019531 C 147.1875 219.808594 147.054688 219.601562 146.84375 219.558594 C 146.632812 219.511719 146.425781 219.648438 146.382812 219.859375 "/>
<path style=" stroke:none;fill-rule:nonzero;fill:rgb(27.839661%,14.118958%,12.548828%);fill-opacity:1;" d="M 156.5 219.820312 L 155.277344 225.699219 C 155.230469 225.910156 155.367188 226.117188 155.578125 226.160156 C 155.789062 226.203125 155.996094 226.070312 156.039062 225.859375 L 157.261719 219.980469 C 157.304688 219.773438 157.171875 219.5625 156.960938 219.519531 C 156.75 219.476562 156.542969 219.613281 156.5 219.820312 "/>
<path style=" stroke:none;fill-rule:nonzero;fill:rgb(56.469727%,24.308777%,63.919067%);fill-opacity:1;" d="M 112.125 129.855469 C 112.125 129.855469 98.035156 127.035156 93.03125 128.738281 C 87.078125 130.769531 86.359375 166.902344 86.359375 166.902344 C 86.359375 166.902344 73.496094 213.445312 77.308594 219.742188 C 81.117188 226.042969 156.792969 229.308594 166.125 225.234375 C 166.125 225.234375 166.125 201.15625 152.796875 168.386719 C 152.796875 168.386719 151.179688 138.128906 144.355469 134.296875 C 137.53125 130.464844 130.691406 129.484375 126.761719 129.855469 C 122.835938 130.226562 112.125 129.855469 112.125 129.855469 "/>
<path style=" stroke:none;fill-rule:nonzero;fill:rgb(48.239136%,19.999695%,55.288696%);fill-opacity:1;" d="M 166.125 225.234375 C 166.125 225.234375 166.125 224.035156 165.976562 221.820312 C 149.230469 222.140625 96.15625 221.605469 93.03125 202.25 C 89.324219 179.253906 101.1875 157.875 96.371094 153.65625 C 94.90625 152.367188 91.199219 154.316406 86.757812 157.640625 C 86.441406 162.972656 86.359375 166.902344 86.359375 166.902344 C 86.359375 166.902344 73.496094 213.445312 77.308594 219.742188 C 81.117188 226.042969 156.792969 229.308594 166.125 225.234375 "/>
<path style=" stroke:none;fill-rule:nonzero;fill:rgb(89.408875%,48.239136%,37.249756%);fill-opacity:1;" d="M 127.488281 120.214844 L 131.484375 130.960938 C 131.484375 130.960938 134.980469 133.855469 134.5 137.097656 C 131.898438 154.6875 113.226562 142.59375 110.394531 131.703125 C 110.394531 131.703125 113.132812 124.664062 113.632812 120.214844 L 127.488281 120.214844 "/>
<path style=" stroke:none;fill-rule:nonzero;fill:rgb(77.648926%,38.038635%,30.979919%);fill-opacity:1;" d="M 132.789062 132.316406 L 127.488281 120.214844 L 113.632812 120.214844 C 113.414062 122.144531 111.710938 127.777344 111.058594 129.898438 C 118.359375 140.164062 131.585938 138.453125 132.789062 132.316406 "/>
<path style=" stroke:none;fill-rule:nonzero;fill:rgb(87.838745%,46.669006%,35.688782%);fill-opacity:1;" d="M 154.839844 91.484375 C 152.1875 95.597656 152.109375 100.976562 154.660156 103.488281 C 157.214844 106 161.433594 104.703125 164.082031 100.585938 C 166.734375 96.472656 166.8125 91.097656 164.261719 88.585938 C 161.710938 86.070312 157.492188 87.371094 154.839844 91.484375 "/>
<path style=" stroke:none;fill-rule:nonzero;fill:rgb(89.408875%,47.44873%,35.688782%);fill-opacity:1;" d="M 159.167969 102.558594 C 155.601562 103.292969 155.394531 99.222656 155.394531 99.222656 C 155.625 99.394531 158 100.296875 158.878906 98.519531 C 159.757812 96.738281 156.699219 95.390625 156.699219 95.390625 C 157.015625 94.246094 158.53125 90.03125 161.746094 90.773438 C 164.964844 91.519531 164.070312 96.109375 164.070312 96.109375 C 164.070312 96.109375 163.671875 101.628906 159.167969 102.558594 "/>
<path style=" stroke:none;fill-rule:nonzero;fill:rgb(66.668701%,31.369019%,23.529053%);fill-opacity:1;" d="M 164.359375 96.167969 C 164.363281 96.152344 164.480469 95.550781 164.480469 94.734375 C 164.480469 93.996094 164.386719 93.089844 164.011719 92.273438 C 163.636719 91.460938 162.941406 90.738281 161.816406 90.484375 C 161.535156 90.417969 161.265625 90.386719 161.007812 90.386719 C 159.503906 90.390625 158.421875 91.398438 157.695312 92.476562 C 156.96875 93.566406 156.5625 94.765625 156.410156 95.3125 C 156.371094 95.453125 156.445312 95.605469 156.578125 95.664062 L 156.667969 95.707031 C 156.878906 95.808594 157.421875 96.09375 157.894531 96.488281 C 158.375 96.886719 158.746094 97.386719 158.738281 97.871094 C 158.738281 98.03125 158.703125 98.199219 158.613281 98.386719 C 158.429688 98.753906 158.1875 98.972656 157.914062 99.113281 C 157.636719 99.25 157.320312 99.304688 157.003906 99.304688 C 156.652344 99.304688 156.304688 99.238281 156.035156 99.160156 C 155.902344 99.121094 155.789062 99.078125 155.703125 99.042969 L 155.601562 99 L 155.578125 98.984375 L 155.574219 98.984375 C 155.480469 98.914062 155.355469 98.90625 155.253906 98.960938 C 155.152344 99.015625 155.09375 99.125 155.097656 99.238281 C 155.101562 99.257812 155.144531 100.15625 155.53125 101.085938 C 155.726562 101.550781 156.011719 102.027344 156.4375 102.394531 C 156.859375 102.765625 157.433594 103.015625 158.144531 103.015625 C 158.484375 103.015625 158.851562 102.960938 159.25 102.84375 C 159.410156 102.796875 159.5 102.628906 159.453125 102.472656 C 159.40625 102.316406 159.242188 102.226562 159.082031 102.269531 C 158.730469 102.375 158.417969 102.417969 158.144531 102.417969 C 157.570312 102.414062 157.160156 102.230469 156.828125 101.945312 C 156.332031 101.519531 156.035156 100.835938 155.875 100.253906 C 155.796875 99.960938 155.75 99.695312 155.726562 99.507812 L 155.699219 99.285156 L 155.695312 99.210938 L 155.394531 99.222656 L 155.21875 99.464844 C 155.292969 99.515625 155.363281 99.550781 155.472656 99.59375 C 155.792969 99.726562 156.363281 99.902344 157.003906 99.902344 C 157.386719 99.902344 157.796875 99.839844 158.183594 99.644531 C 158.566406 99.453125 158.914062 99.128906 159.148438 98.652344 C 159.277344 98.390625 159.335938 98.125 159.335938 97.871094 C 159.335938 97.425781 159.15625 97.03125 158.914062 96.695312 C 158.179688 95.703125 156.839844 95.132812 156.820312 95.117188 L 156.699219 95.390625 L 156.988281 95.46875 C 157.125 94.96875 157.519531 93.8125 158.191406 92.808594 C 158.871094 91.800781 159.796875 90.980469 161.007812 90.984375 C 161.21875 90.984375 161.441406 91.007812 161.679688 91.0625 C 162.621094 91.285156 163.140625 91.835938 163.46875 92.523438 C 163.792969 93.21875 163.886719 94.050781 163.882812 94.734375 C 163.882812 95.113281 163.855469 95.445312 163.828125 95.683594 C 163.816406 95.800781 163.800781 95.894531 163.792969 95.957031 L 163.777344 96.054688 C 163.742188 96.214844 163.847656 96.371094 164.011719 96.402344 C 164.171875 96.433594 164.328125 96.328125 164.359375 96.167969 "/>
<path style=" stroke:none;fill-rule:nonzero;fill:rgb(66.668701%,31.369019%,23.529053%);fill-opacity:1;" d="M 161.9375 97.324219 C 161.949219 97.300781 162.546875 96.183594 162.550781 94.792969 C 162.550781 94.078125 162.386719 93.292969 161.890625 92.566406 C 161.363281 91.785156 160.636719 91.503906 159.988281 91.507812 C 158.820312 91.519531 157.867188 92.28125 157.84375 92.292969 C 157.714844 92.394531 157.6875 92.582031 157.789062 92.710938 C 157.890625 92.84375 158.078125 92.867188 158.210938 92.765625 L 158.242188 92.738281 C 158.410156 92.613281 159.210938 92.097656 159.988281 92.105469 C 160.480469 92.109375 160.960938 92.277344 161.398438 92.90625 C 161.8125 93.507812 161.953125 94.167969 161.953125 94.792969 C 161.953125 95.398438 161.816406 95.96875 161.679688 96.382812 C 161.613281 96.589844 161.542969 96.757812 161.492188 96.875 L 161.429688 97.003906 L 161.410156 97.046875 C 161.332031 97.191406 161.390625 97.371094 161.535156 97.449219 C 161.679688 97.527344 161.863281 97.46875 161.9375 97.324219 "/>
<path style=" stroke:none;fill-rule:nonzero;fill:rgb(89.7995%,78.819275%,72.158813%);fill-opacity:1;" d="M 153.550781 105.761719 C 153.550781 105.761719 169.921875 78.832031 152.171875 53.65625 C 144.535156 42.828125 148.71875 70.078125 148.71875 70.078125 L 153.550781 105.761719 "/>
<path style=" stroke:none;fill-rule:nonzero;fill:rgb(83.918762%,69.40918%,63.139343%);fill-opacity:1;" d="M 156.671875 98.957031 C 164.882812 78.542969 154.242188 61.0625 147.714844 54.1875 C 147.105469 59.558594 148.71875 70.082031 148.71875 70.082031 L 153.316406 104.03125 C 154.777344 102.5 155.921875 100.8125 156.671875 98.957031 "/>
<path style=" stroke:none;fill-rule:nonzero;fill:rgb(96.078491%,56.079102%,42.749023%);fill-opacity:1;" d="M 80.164062 88.980469 C 80.164062 108.421875 97.648438 124.179688 119.214844 124.179688 C 140.785156 124.179688 158.269531 108.421875 158.269531 88.980469 C 158.269531 69.539062 146.808594 52.035156 119.214844 53.777344 C 97.691406 55.136719 80.164062 69.539062 80.164062 88.980469 "/>
<path style=" stroke:none;fill-rule:nonzero;fill:rgb(89.019775%,49.409485%,38.42926%);fill-opacity:1;" d="M 95.644531 104.769531 C 95.644531 104.769531 98.539062 81.535156 84.144531 73.734375 C 81.597656 78.28125 80.164062 83.425781 80.164062 88.980469 C 80.164062 108.421875 97.648438 124.183594 119.214844 124.183594 C 130.648438 124.183594 140.929688 119.753906 148.074219 112.695312 C 137.546875 118.886719 115.296875 127.390625 95.644531 104.769531 "/>
<path style=" stroke:none;fill-rule:nonzero;fill:rgb(89.408875%,47.839355%,36.859131%);fill-opacity:1;" d="M 103.113281 93.300781 C 103.113281 95.472656 106.371094 97.234375 110.394531 97.234375 C 114.414062 97.234375 117.675781 95.472656 117.675781 93.300781 C 117.675781 91.128906 114.414062 89.363281 110.394531 89.363281 C 106.371094 89.363281 103.113281 91.128906 103.113281 93.300781 "/>
<path style=" stroke:none;fill-rule:nonzero;fill:rgb(89.408875%,47.839355%,36.859131%);fill-opacity:1;" d="M 140.125 92.21875 C 140.125 94.390625 143.382812 96.152344 147.40625 96.152344 C 151.425781 96.152344 154.6875 94.390625 154.6875 92.21875 C 154.6875 90.042969 151.425781 88.28125 147.40625 88.28125 C 143.382812 88.28125 140.125 90.042969 140.125 92.21875 "/>
<path style=" stroke:none;fill-rule:nonzero;fill:rgb(89.7995%,78.819275%,72.158813%);fill-opacity:1;" d="M 116.625 72.015625 C 116.625 72.015625 118.984375 74.285156 116.449219 75.3125 C 113.90625 76.335938 104.925781 77.675781 103.695312 77.542969 C 103.695312 77.542969 101.609375 75.574219 105.71875 73.859375 C 109.828125 72.140625 114.902344 70.707031 116.625 72.015625 "/>
<path style=" stroke:none;fill-rule:nonzero;fill:rgb(89.7995%,78.819275%,72.158813%);fill-opacity:1;" d="M 138.625 73.25 C 138.625 73.25 136.570312 75.554688 138.722656 76.539062 C 140.878906 77.519531 148.53125 78.714844 149.582031 78.558594 C 149.582031 78.558594 151.398438 76.5625 147.914062 74.914062 C 144.429688 73.265625 140.117188 71.917969 138.625 73.25 "/>
<path style=" stroke:none;fill-rule:nonzero;fill:rgb(96.078491%,56.079102%,42.749023%);fill-opacity:1;" d="M 84.816406 92.898438 C 87.609375 97.671875 86.511719 103.5 82.363281 105.921875 C 78.214844 108.339844 72.589844 106.4375 69.796875 101.667969 C 67.007812 96.898438 68.101562 91.070312 72.25 88.644531 C 76.398438 86.226562 82.023438 88.128906 84.816406 92.898438 "/>
<path style=" stroke:none;fill-rule:nonzero;fill:rgb(89.408875%,47.44873%,35.688782%);fill-opacity:1;" d="M 76.25 104.378906 C 81.085938 105.597656 82.292969 101.214844 82.292969 101.214844 C 81.933594 101.371094 78.394531 102.070312 77.5625 100.042969 C 76.730469 98.007812 81.324219 96.910156 81.324219 96.910156 C 81.140625 95.632812 79.964844 90.886719 75.285156 91.3125 C 70.601562 91.738281 70.828125 96.820312 70.828125 96.820312 C 70.828125 96.820312 70.136719 102.839844 76.25 104.378906 "/>
<path style=" stroke:none;fill-rule:nonzero;fill:rgb(66.668701%,31.369019%,23.529053%);fill-opacity:1;" d="M 71.199219 96.800781 L 71.195312 96.707031 C 71.195312 96.367188 71.242188 95.160156 71.789062 94.039062 C 72.339844 92.914062 73.3125 91.875 75.316406 91.683594 C 75.507812 91.664062 75.6875 91.65625 75.863281 91.65625 C 77.824219 91.664062 79.007812 92.65625 79.792969 93.839844 C 80.566406 95.023438 80.875 96.394531 80.957031 96.964844 L 81.324219 96.910156 L 81.238281 96.550781 C 81.226562 96.554688 80.242188 96.785156 79.238281 97.25 C 78.734375 97.484375 78.222656 97.773438 77.816406 98.140625 C 77.414062 98.503906 77.09375 98.976562 77.089844 99.554688 C 77.089844 99.757812 77.132812 99.972656 77.21875 100.183594 C 77.492188 100.855469 78.039062 101.285156 78.628906 101.519531 C 79.222656 101.757812 79.875 101.828125 80.46875 101.828125 C 80.9375 101.828125 81.371094 101.78125 81.714844 101.726562 C 81.882812 101.699219 82.03125 101.671875 82.152344 101.640625 C 82.273438 101.613281 82.355469 101.589844 82.4375 101.554688 L 82.292969 101.214844 L 81.933594 101.117188 L 81.925781 101.144531 C 81.875 101.308594 81.597656 102.132812 80.988281 102.882812 C 80.367188 103.636719 79.460938 104.316406 78.054688 104.320312 C 77.5625 104.320312 77 104.234375 76.367188 104.027344 C 76.171875 103.964844 75.960938 104.070312 75.898438 104.265625 C 75.835938 104.460938 75.941406 104.667969 76.136719 104.734375 C 76.835938 104.960938 77.472656 105.0625 78.054688 105.0625 C 79.832031 105.0625 81.011719 104.101562 81.699219 103.175781 C 82.390625 102.246094 82.640625 101.339844 82.648438 101.3125 C 82.6875 101.175781 82.644531 101.03125 82.535156 100.9375 C 82.429688 100.839844 82.277344 100.816406 82.144531 100.875 L 81.976562 100.921875 C 81.679688 100.992188 81.097656 101.089844 80.46875 101.089844 C 79.933594 101.089844 79.367188 101.019531 78.90625 100.832031 C 78.441406 100.640625 78.097656 100.359375 77.90625 99.898438 C 77.851562 99.769531 77.832031 99.660156 77.832031 99.554688 C 77.832031 99.269531 77.992188 98.980469 78.316406 98.691406 C 78.789062 98.253906 79.574219 97.882812 80.234375 97.640625 C 80.5625 97.519531 80.859375 97.425781 81.074219 97.363281 C 81.285156 97.300781 81.410156 97.269531 81.414062 97.269531 C 81.597656 97.226562 81.722656 97.046875 81.695312 96.855469 C 81.597656 96.207031 81.273438 94.765625 80.414062 93.4375 C 79.558594 92.113281 78.101562 90.910156 75.863281 90.914062 C 75.664062 90.914062 75.460938 90.925781 75.25 90.945312 C 72.984375 91.140625 71.726562 92.425781 71.117188 93.714844 C 70.5 95.007812 70.457031 96.304688 70.453125 96.707031 L 70.457031 96.839844 C 70.46875 97.042969 70.644531 97.199219 70.847656 97.191406 C 71.050781 97.179688 71.210938 97.003906 71.199219 96.800781 "/>
<path style=" stroke:none;fill-rule:nonzero;fill:rgb(66.668701%,31.369019%,23.529053%);fill-opacity:1;" d="M 74.28125 98.113281 L 74.269531 98.089844 C 74.210938 97.953125 73.957031 97.277344 73.957031 96.449219 C 73.960938 95.589844 74.210938 94.59375 75.222656 93.734375 C 75.886719 93.175781 76.554688 92.996094 77.203125 92.996094 C 77.914062 92.996094 78.589844 93.230469 79.085938 93.472656 C 79.335938 93.589844 79.539062 93.714844 79.675781 93.800781 L 79.832031 93.910156 L 79.882812 93.945312 C 80.042969 94.070312 80.277344 94.039062 80.402344 93.878906 C 80.527344 93.71875 80.5 93.484375 80.335938 93.359375 C 80.304688 93.34375 78.949219 92.265625 77.203125 92.253906 C 76.414062 92.253906 75.539062 92.492188 74.746094 93.167969 C 73.542969 94.175781 73.210938 95.445312 73.214844 96.449219 C 73.21875 97.566406 73.59375 98.390625 73.605469 98.417969 C 73.6875 98.605469 73.910156 98.6875 74.09375 98.601562 C 74.28125 98.519531 74.363281 98.296875 74.28125 98.113281 "/>
<path style=" stroke:none;fill-rule:nonzero;fill:rgb(66.668701%,31.369019%,23.529053%);fill-opacity:1;" d="M 131.023438 79.886719 C 131.015625 79.910156 129.664062 83.472656 129.660156 87.003906 C 129.660156 88.351562 129.855469 89.695312 130.425781 90.847656 L 130.644531 91.039062 L 130.933594 91.015625 L 130.953125 91.003906 C 131.070312 90.945312 131.683594 90.675781 132.464844 90.679688 C 133.15625 90.679688 133.972656 90.875 134.777344 91.609375 C 135.128906 91.921875 135.464844 92.625 135.460938 93.363281 C 135.453125 94.0625 135.191406 94.789062 134.417969 95.378906 C 133.644531 95.96875 132.308594 96.417969 130.164062 96.417969 C 130.03125 96.417969 129.894531 96.417969 129.757812 96.414062 C 129.550781 96.410156 129.382812 96.574219 129.378906 96.777344 C 129.375 96.980469 129.535156 97.152344 129.742188 97.15625 C 129.882812 97.15625 130.027344 97.160156 130.164062 97.160156 C 132.40625 97.160156 133.90625 96.691406 134.867188 95.96875 C 135.828125 95.246094 136.207031 94.253906 136.203125 93.363281 C 136.195312 92.414062 135.816406 91.5625 135.28125 91.0625 C 134.332031 90.191406 133.300781 89.933594 132.464844 89.9375 C 131.382812 89.9375 130.617188 90.34375 130.585938 90.359375 L 130.757812 90.683594 L 131.089844 90.519531 C 130.59375 89.515625 130.402344 88.277344 130.402344 87.003906 C 130.402344 85.332031 130.730469 83.609375 131.058594 82.3125 C 131.226562 81.664062 131.390625 81.121094 131.511719 80.742188 C 131.636719 80.359375 131.71875 80.148438 131.71875 80.148438 C 131.789062 79.957031 131.691406 79.746094 131.5 79.671875 C 131.308594 79.601562 131.09375 79.695312 131.023438 79.886719 "/>
<path style=" stroke:none;fill-rule:nonzero;fill:rgb(66.668701%,31.369019%,23.529053%);fill-opacity:1;" d="M 133.75 109.921875 C 133.691406 109.988281 132.109375 112.144531 126.941406 112.152344 C 126.761719 112.152344 126.613281 112.296875 126.613281 112.480469 C 126.613281 112.660156 126.761719 112.808594 126.941406 112.808594 C 132.472656 112.816406 134.25 110.371094 134.292969 110.296875 C 134.394531 110.148438 134.355469 109.945312 134.207031 109.839844 C 134.058594 109.738281 133.855469 109.773438 133.75 109.921875 "/>
<path style=" stroke:none;fill-rule:nonzero;fill:rgb(66.668701%,31.369019%,23.529053%);fill-opacity:1;" d="M 121.925781 97.695312 C 121.902344 97.722656 117.046875 102.601562 117.035156 109.492188 C 117.035156 109.699219 117.039062 109.910156 117.050781 110.125 C 117.058594 110.304688 117.210938 110.445312 117.394531 110.4375 C 117.574219 110.429688 117.714844 110.277344 117.707031 110.09375 C 117.699219 109.890625 117.691406 109.691406 117.691406 109.492188 C 117.691406 106.207031 118.867188 103.367188 120.042969 101.351562 C 120.632812 100.34375 121.226562 99.539062 121.664062 98.992188 C 121.886719 98.71875 122.070312 98.507812 122.195312 98.367188 L 122.34375 98.207031 L 122.390625 98.15625 C 122.519531 98.027344 122.515625 97.820312 122.390625 97.691406 C 122.261719 97.566406 122.050781 97.566406 121.925781 97.695312 "/>
<path style=" stroke:none;fill-rule:nonzero;fill:rgb(66.668701%,31.369019%,23.529053%);fill-opacity:1;" d="M 135.613281 97.265625 C 135.613281 97.265625 135.667969 97.332031 135.769531 97.460938 C 136.480469 98.382812 139.332031 102.402344 139.320312 106.398438 C 139.320312 106.578125 139.46875 106.726562 139.648438 106.726562 C 139.832031 106.726562 139.976562 106.578125 139.976562 106.398438 C 139.964844 101.492188 136.132812 96.875 136.125 96.847656 C 136.007812 96.707031 135.800781 96.6875 135.660156 96.800781 C 135.519531 96.917969 135.5 97.125 135.613281 97.265625 "/>
<path style=" stroke:none;fill-rule:nonzero;fill:rgb(89.7995%,78.819275%,72.158813%);fill-opacity:1;" d="M 77.308594 87.667969 C 77.308594 87.667969 83.378906 88.839844 84.816406 92.898438 C 86.25 96.960938 89.417969 90.738281 90.394531 84.46875 C 91.375 78.199219 96.015625 66.484375 101.882812 64.527344 C 107.75 62.578125 134.851562 70.097656 145.617188 60.355469 C 145.617188 60.355469 155.117188 65.453125 157.707031 81.710938 C 157.707031 81.710938 163.011719 24.453125 103.164062 39.828125 C 103.164062 39.828125 58.132812 49.640625 72.25 88.644531 C 72.25 88.644531 74.734375 86.9375 77.308594 87.667969 "/>
<path style=" stroke:none;fill-rule:nonzero;fill:rgb(50.19989%,8.239746%,21.569824%);fill-opacity:1;" d="M 149.585938 267.800781 C 146.878906 258.738281 127.046875 252.746094 127.046875 252.746094 L 141.441406 289.019531 L 146.910156 338.640625 C 146.910156 338.640625 151.960938 340.257812 153.617188 340.804688 C 153.859375 324.691406 150.296875 270.179688 149.585938 267.800781 "/>
<path style=" stroke:none;fill-rule:nonzero;fill:rgb(56.469727%,24.308777%,63.919067%);fill-opacity:1;" d="M 93.03125 128.738281 C 93.03125 128.738281 66.742188 126.578125 55.5 133.105469 C 44.253906 139.628906 34.515625 172.640625 34.253906 177.613281 C 34.253906 177.613281 40.980469 185.304688 47.824219 181.890625 L 66.539062 153.253906 C 66.539062 153.253906 86.914062 161.714844 93.03125 160.132812 C 99.148438 158.554688 102.214844 135.90625 93.03125 128.738281 "/>
<path style=" stroke:none;fill-rule:nonzero;fill:rgb(21.958923%,14.509583%,11.369324%);fill-opacity:1;" d="M 128.050781 104.769531 C 128.050781 106.558594 129.136719 108.011719 130.480469 108.011719 C 131.824219 108.011719 132.910156 106.558594 132.910156 104.769531 C 132.910156 102.976562 131.824219 101.523438 130.480469 101.523438 C 129.136719 101.523438 128.050781 102.976562 128.050781 104.769531 "/>
<path style=" stroke:none;fill-rule:nonzero;fill:rgb(21.958923%,14.509583%,11.369324%);fill-opacity:1;" d="M 110.464844 89.003906 C 110.960938 91.167969 112.421875 92.683594 113.734375 92.382812 C 115.046875 92.085938 115.710938 90.089844 115.21875 87.925781 C 114.726562 85.757812 113.261719 84.246094 111.949219 84.546875 C 110.636719 84.84375 109.972656 86.839844 110.464844 89.003906 "/>
<path style=" stroke:none;fill-rule:nonzero;fill:rgb(21.958923%,14.509583%,11.369324%);fill-opacity:1;" d="M 141.851562 88.074219 C 142.289062 89.992188 143.488281 91.355469 144.535156 91.117188 C 145.582031 90.882812 146.074219 89.132812 145.636719 87.214844 C 145.199219 85.296875 144 83.933594 142.953125 84.171875 C 141.910156 84.40625 141.414062 86.15625 141.851562 88.074219 "/>
<path style=" stroke:none;fill-rule:nonzero;fill:rgb(27.839661%,14.118958%,12.548828%);fill-opacity:1;" d="M 143.71875 177.203125 C 143.71875 177.203125 143.128906 177.457031 142.070312 177.910156 C 138.367188 179.496094 128.914062 183.488281 118.894531 187.371094 C 108.878906 191.253906 98.269531 195.023438 92.339844 196.144531 C 92.09375 196.191406 91.9375 196.425781 91.980469 196.667969 C 92.027344 196.910156 92.261719 197.070312 92.503906 197.027344 C 99.441406 195.703125 112.300781 190.960938 123.46875 186.539062 C 134.628906 182.121094 144.074219 178.023438 144.074219 178.023438 C 144.304688 177.925781 144.40625 177.660156 144.308594 177.4375 C 144.210938 177.207031 143.945312 177.105469 143.71875 177.203125 "/>
<path style=" stroke:none;fill-rule:nonzero;fill:rgb(27.839661%,14.118958%,12.548828%);fill-opacity:1;" d="M 139.390625 185.246094 C 139.390625 185.246094 138.9375 185.566406 138.105469 186.132812 C 135.203125 188.105469 127.738281 193.082031 119.429688 197.753906 C 111.125 202.429688 101.945312 206.796875 95.742188 207.578125 C 95.496094 207.609375 95.324219 207.832031 95.355469 208.078125 C 95.386719 208.324219 95.613281 208.496094 95.855469 208.464844 C 103.246094 207.515625 114.203125 201.894531 123.382812 196.511719 C 132.550781 191.132812 139.902344 185.984375 139.90625 185.980469 C 140.109375 185.835938 140.160156 185.558594 140.015625 185.355469 C 139.875 185.15625 139.59375 185.105469 139.390625 185.246094 "/>
<path style=" stroke:none;fill-rule:nonzero;fill:rgb(27.839661%,14.118958%,12.548828%);fill-opacity:1;" d="M 93.3125 160.480469 C 93.382812 160.4375 98.226562 156.480469 98.222656 147.019531 C 98.222656 142.292969 97.015625 136.199219 93.4375 128.550781 C 93.332031 128.328125 93.066406 128.226562 92.84375 128.332031 C 92.617188 128.4375 92.523438 128.707031 92.625 128.929688 C 96.160156 136.484375 97.328125 142.445312 97.328125 147.019531 C 97.324219 151.59375 96.164062 154.789062 95.011719 156.847656 C 94.4375 157.871094 93.863281 158.613281 93.4375 159.09375 C 93.226562 159.335938 93.046875 159.511719 92.929688 159.625 L 92.792969 159.75 L 92.757812 159.777344 L 92.75 159.785156 C 92.558594 159.9375 92.527344 160.222656 92.683594 160.414062 C 92.839844 160.605469 93.121094 160.636719 93.3125 160.480469 "/>
<path style=" stroke:none;fill-rule:nonzero;fill:rgb(27.839661%,14.118958%,12.548828%);fill-opacity:1;" d="M 102.722656 131.988281 C 102.722656 131.992188 102.757812 132.238281 102.8125 132.703125 C 102.980469 134.097656 103.316406 137.394531 103.316406 141.371094 C 103.320312 146.15625 102.824219 151.929688 100.996094 156.527344 C 100.082031 158.828125 98.839844 160.832031 97.183594 162.289062 C 95.519531 163.75 93.449219 164.679688 90.792969 164.84375 C 90.546875 164.855469 90.359375 165.070312 90.375 165.316406 C 90.386719 165.5625 90.601562 165.75 90.847656 165.734375 C 93.6875 165.566406 95.980469 164.546875 97.773438 162.964844 C 100.472656 160.585938 102.066406 156.992188 103.003906 153.101562 C 103.9375 149.210938 104.214844 145.007812 104.214844 141.371094 C 104.214844 136 103.609375 131.875 103.609375 131.859375 C 103.570312 131.617188 103.34375 131.445312 103.101562 131.484375 C 102.855469 131.519531 102.6875 131.746094 102.722656 131.988281 "/>
</g>
</svg>
