<?xml version="1.0" encoding="UTF-8"?>
<svg xmlns="http://www.w3.org/2000/svg" xmlns:xlink="http://www.w3.org/1999/xlink" width="375pt" height="374.999991pt" viewBox="0 0 375 374.999991" version="1.2">
<defs>
<filter id="alpha" filterUnits="objectBoundingBox" x="0%" y="0%" width="100%" height="100%">
  <feColorMatrix type="matrix" in="SourceGraphic" values="0 0 0 0 1 0 0 0 0 1 0 0 0 0 1 0 0 0 1 0"/>
</filter>
<mask id="mask0">
  <g filter="url(#alpha)">
<rect x="0" y="0" width="375" height="374.999991" style="fill:rgb(0%,0%,0%);fill-opacity:0.7294;stroke:none;"/>
  </g>
</mask>
<clipPath id="clip2">
  <path d="M 0.679688 0.9375 L 312.636719 0.9375 L 312.636719 158 L 0.679688 158 Z M 0.679688 0.9375 "/>
</clipPath>
<clipPath id="clip3">
  <path d="M 14 106 L 299 106 L 299 290.4375 L 14 290.4375 Z M 14 106 "/>
</clipPath>
<clipPath id="clip1">
  <rect x="0" y="0" width="313" height="291"/>
</clipPath>
<g id="surface5" clip-path="url(#clip1)">
<g clip-path="url(#clip2)" clip-rule="nonzero">
<path style=" stroke:none;fill-rule:nonzero;fill:rgb(86.669922%,18.03894%,26.669312%);fill-opacity:1;" d="M 67.59375 112.285156 C 70.554688 112.285156 73.382812 113.464844 75.476562 115.535156 L 109.066406 149.140625 L 146.6875 73.890625 C 148.644531 69.972656 152.320312 67.320312 157.105469 67.746094 C 161.46875 67.921875 165.339844 70.664062 166.964844 74.738281 L 200.199219 157.847656 L 212.84375 119.878906 C 214.382812 115.355469 218.632812 112.285156 223.417969 112.285156 L 308.03125 112.285156 C 310.835938 103.53125 312.460938 94.957031 312.460938 86.675781 C 312.460938 38.660156 274.75 0.9375 226.757812 0.9375 C 199.644531 0.9375 173.621094 13.5625 156.636719 33.515625 C 139.652344 13.5625 113.628906 0.9375 86.515625 0.9375 C 38.523438 0.9375 0.8125 38.660156 0.8125 86.675781 C 0.8125 94.957031 2.4375 103.507812 5.246094 112.285156 Z M 67.59375 112.285156 "/>
</g>
<g clip-path="url(#clip3)" clip-rule="nonzero">
<path style=" stroke:none;fill-rule:nonzero;fill:rgb(86.669922%,18.03894%,26.669312%);fill-opacity:1;" d="M 231.433594 134.554688 L 211.710938 193.746094 C 210.242188 198.175781 206.144531 201.203125 201.46875 201.359375 C 201.359375 201.359375 201.246094 201.359375 201.136719 201.359375 C 196.59375 201.359375 192.5 198.597656 190.808594 194.367188 L 155.503906 106.046875 L 122.066406 172.945312 C 120.464844 176.128906 117.4375 178.378906 113.898438 178.933594 C 110.3125 179.605469 106.773438 178.378906 104.238281 175.816406 L 62.988281 134.554688 L 14.683594 134.554688 C 40.082031 182.722656 97.046875 236.367188 156.636719 290.4375 C 216.230469 236.257812 273.171875 182.675781 298.59375 134.554688 Z M 231.433594 134.554688 "/>
</g>
</g>
<clipPath id="clip4">
  <path d="M 118.527344 207 L 236 207 L 236 346 L 118.527344 346 Z M 118.527344 207 "/>
</clipPath>
<clipPath id="clip5">
  <path d="M 219.585938 237 L 339.636719 237 L 339.636719 352.855469 L 219.585938 352.855469 Z M 219.585938 237 "/>
</clipPath>
<clipPath id="clip6">
  <path d="M 240 195 L 343.527344 195 L 343.527344 330 L 240 330 Z M 240 195 "/>
</clipPath>
</defs>
<g id="surface1">
<rect x="0" y="0" width="375" height="374.999991" style="fill:rgb(100%,100%,100%);fill-opacity:1;stroke:none;"/>
<rect x="0" y="0" width="375" height="374.999991" style="fill:rgb(100%,100%,100%);fill-opacity:1;stroke:none;"/>
<rect x="0" y="0" width="375" height="374.999991" style="fill:rgb(100%,100%,100%);fill-opacity:1;stroke:none;"/>
<use xlink:href="#surface5" transform="matrix(1,0,0,1,31,42)" mask="url(#mask0)"/>
<path style=" stroke:none;fill-rule:evenodd;fill:rgb(59.21936%,82.749939%,12.939453%);fill-opacity:1;" d="M 144.175781 215.953125 C 142.875 217.101562 141.589844 218.3125 140.320312 219.582031 C 138.121094 221.765625 136.089844 224.019531 134.230469 226.335938 L 126.128906 193.90625 C 124.9375 189.144531 125.609375 184.675781 128.140625 180.507812 C 130.671875 176.265625 134.324219 173.550781 139.089844 172.359375 L 189.824219 159.855469 C 194.59375 158.664062 199.066406 159.296875 203.238281 161.753906 C 207.484375 164.359375 210.199219 168.007812 211.394531 172.695312 L 218.769531 202.390625 C 228.460938 205.96875 237.253906 211.699219 245.140625 219.582031 C 249.691406 224.125 253.527344 228.960938 256.652344 234.09375 C 254.628906 234.988281 252.652344 235.992188 250.730469 237.105469 C 246.1875 239.789062 241.867188 243.171875 237.765625 247.265625 C 225.699219 259.324219 219.660156 273.910156 219.660156 291.027344 C 219.660156 300.558594 221.527344 309.304688 225.25 317.265625 C 221.472656 317.859375 217.5625 318.15625 213.515625 318.15625 C 194.074219 318.15625 177.496094 311.308594 163.789062 297.613281 C 150.007812 283.847656 143.113281 267.285156 143.113281 247.933594 C 143.113281 244.878906 143.28125 241.90625 143.617188 239.003906 C 144.164062 234.269531 145.148438 229.730469 146.582031 225.386719 C 148.691406 219.023438 151.746094 213.070312 155.742188 207.527344 C 166.769531 201.125 179.097656 197.925781 192.730469 197.925781 C 197.066406 197.925781 201.277344 198.242188 205.359375 198.875 L 199.546875 175.707031 C 199.175781 174.222656 198.316406 173.066406 196.980469 172.25 C 195.636719 171.429688 194.222656 171.207031 192.730469 171.578125 L 142.109375 184.191406 C 140.621094 184.566406 139.464844 185.417969 138.644531 186.761719 C 137.824219 188.101562 137.601562 189.515625 137.972656 191 L 144.175781 215.953125 "/>
<g clip-path="url(#clip4)" clip-rule="nonzero">
<path style=" stroke:none;fill-rule:evenodd;fill:rgb(40.779114%,77.249146%,18.429565%);fill-opacity:1;" d="M 155.742188 207.527344 C 151.746094 213.070312 148.691406 219.023438 146.582031 225.386719 C 145.148438 229.730469 144.164062 234.269531 143.617188 239.003906 C 143.28125 241.90625 143.113281 244.878906 143.113281 247.933594 C 143.113281 267.285156 150.007812 283.847656 163.789062 297.613281 C 177.496094 311.308594 194.074219 318.15625 213.515625 318.15625 C 217.5625 318.15625 221.472656 317.859375 225.25 317.265625 C 227.808594 322.679688 231.21875 327.738281 235.476562 332.441406 C 223.105469 341.375 208.859375 345.839844 192.730469 345.839844 C 172.246094 345.839844 154.773438 338.621094 140.320312 324.183594 C 125.792969 309.742188 118.527344 292.332031 118.527344 271.9375 C 118.527344 254.570312 123.765625 239.371094 134.230469 226.335938 C 136.089844 224.019531 138.121094 221.765625 140.320312 219.582031 C 141.589844 218.3125 142.875 217.101562 144.175781 215.953125 C 147.875 212.695312 151.730469 209.886719 155.742188 207.527344 "/>
</g>
<g clip-path="url(#clip5)" clip-rule="nonzero">
<path style=" stroke:none;fill-rule:evenodd;fill:rgb(69.40918%,9.408569%,25.099182%);fill-opacity:1;" d="M 235.476562 332.441406 C 231.21875 327.738281 227.808594 322.679688 225.25 317.265625 C 221.527344 309.304688 219.660156 300.558594 219.660156 291.027344 C 219.660156 273.910156 225.699219 259.324219 237.765625 247.265625 C 241.867188 243.171875 246.1875 239.789062 250.730469 237.105469 C 243.726562 246.933594 240.226562 258.207031 240.226562 270.933594 C 240.226562 284.511719 244.246094 296.4375 252.296875 306.710938 C 253.410156 308.144531 254.601562 309.539062 255.871094 310.898438 C 256.371094 311.46875 256.890625 312.027344 257.4375 312.574219 C 268.910156 324.035156 282.800781 329.765625 299.117188 329.765625 C 314.835938 329.765625 328.324219 324.40625 339.570312 313.6875 C 336.589844 321.429688 331.894531 328.460938 325.488281 334.789062 C 313.421875 346.84375 298.820312 352.871094 281.683594 352.871094 C 264.550781 352.871094 249.910156 346.84375 237.765625 334.789062 C 236.988281 334.011719 236.226562 333.226562 235.476562 332.441406 "/>
</g>
<g clip-path="url(#clip6)" clip-rule="nonzero">
<path style=" stroke:none;fill-rule:evenodd;fill:rgb(93.328857%,10.5896%,40.779114%);fill-opacity:1;" d="M 282.019531 207.304688 C 280.976562 207.894531 280.269531 208.75 279.898438 209.867188 L 273.917969 229.515625 C 276.441406 229.21875 279.03125 229.070312 281.683594 229.070312 C 297.910156 229.070312 311.863281 234.503906 323.535156 245.371094 L 329.847656 225.050781 C 330.148438 223.933594 330.035156 222.855469 329.511719 221.8125 C 328.992188 220.773438 328.136719 220.105469 326.941406 219.804688 L 285.148438 207.078125 C 284.03125 206.707031 282.988281 206.78125 282.019531 207.304688 Z M 339.570312 313.6875 C 328.324219 324.40625 314.835938 329.765625 299.117188 329.765625 C 282.800781 329.765625 268.910156 324.035156 257.4375 312.574219 C 256.890625 312.027344 256.371094 311.46875 255.871094 310.898438 C 254.601562 309.539062 253.410156 308.144531 252.296875 306.710938 C 244.246094 296.4375 240.226562 284.511719 240.226562 270.933594 C 240.226562 258.207031 243.726562 246.933594 250.730469 237.105469 C 252.652344 235.992188 254.628906 234.988281 256.652344 234.09375 C 258.214844 233.410156 259.796875 232.796875 261.402344 232.253906 L 269.28125 206.632812 C 270.46875 202.539062 272.96875 199.523438 276.769531 197.589844 L 276.769531 197.476562 C 280.492188 195.542969 284.367188 195.171875 288.386719 196.363281 L 330.296875 209.199219 C 334.316406 210.390625 337.335938 212.847656 339.347656 216.566406 L 339.347656 216.679688 C 341.285156 220.398438 341.65625 224.269531 340.46875 228.289062 L 332.25 255.082031 C 339.886719 265.484375 343.703125 277.464844 343.703125 291.027344 C 343.703125 299.140625 342.328125 306.695312 339.570312 313.6875 "/>
</g>
</g>
</svg>
